<svg width="159" height="6" viewBox="0 0 159 6" fill="none" xmlns="http://www.w3.org/2000/svg">
<path d="M60.4959 5.93227e-05C61.4573 -0.00207604 62.3587 0.0489681 63.497 0.113588C63.4976 0.113588 63.4982 0.113588 63.4988 0.113588C63.6615 0.12282 63.8291 0.132488 64.0023 0.142153C65.3969 0.21998 67.209 0.311315 69.9415 0.363716C72.9607 0.421626 75.3577 0.631287 76.8214 0.832479C77.0944 0.870002 77.377 0.890621 78.0897 0.909385C78.5571 0.921691 79.189 0.9328 80.101 0.948937C80.586 0.95752 81.1505 0.967398 81.8114 0.979699C83.9991 1.02042 87.4276 1.00774 90.5868 0.995812C92.5043 0.988572 94.3228 0.981654 95.7042 0.987389C97.7243 0.995778 99.6735 1.03341 101.793 1.07455C103.733 1.11222 105.816 1.15288 108.227 1.17599C110.076 1.19373 111.873 1.34605 113.699 1.51621C113.931 1.53787 114.165 1.55976 114.398 1.58176C116.01 1.73359 117.657 1.88902 119.438 1.97802C122.613 2.13665 125.147 2.0711 127.952 1.99852C129.049 1.97014 130.188 1.94063 131.423 1.92308C133.377 1.89533 136.185 1.90094 139.004 1.9088C139.244 1.90947 139.485 1.90994 139.725 1.91063C139.726 1.91063 139.727 1.91063 139.728 1.91063C142.31 1.91801 144.843 1.92526 146.701 1.90916C149.655 1.88358 150.766 1.82313 151.692 1.77256C152.041 1.75355 152.363 1.7358 152.748 1.72202C154.133 1.67241 156.223 1.68162 158.342 1.69089C158.35 1.69089 158.358 1.69089 158.366 1.69089C158.718 1.69243 159.002 1.86185 159 2.0692C158.998 2.27657 158.712 2.44355 158.36 2.44201C157.238 2.4371 156.142 2.43235 155.162 2.43579C155.111 2.61396 154.847 2.74883 154.53 2.74744C153.738 2.74401 151.311 2.87824 147.513 3.09755C147.774 3.13003 147.991 3.16163 148.182 3.19167C148.407 3.22693 148.578 3.25725 148.726 3.28323C149.034 3.33736 149.238 3.37308 149.602 3.39932C150.443 3.42914 151.766 3.43534 153.158 3.44143C153.51 3.44303 153.794 3.6121 153.792 3.81937C153.791 4.0267 153.504 4.19365 153.152 4.19219C153.145 4.19219 153.139 4.19219 153.132 4.19219C151.753 4.18616 150.388 4.18003 149.508 4.14824C149.285 4.14015 149.092 4.13057 148.947 4.12187C148.832 4.11492 148.687 4.10547 148.607 4.09331C148.596 4.09169 148.576 4.08842 148.552 4.08342C148.551 4.0833 148.551 4.08318 148.551 4.08305C148.537 4.08029 148.468 4.06629 148.394 4.03581C148.379 4.02965 148.347 4.01591 148.309 3.9937C148.299 3.99199 148.29 3.99028 148.28 3.98857C148.145 3.96484 148.007 3.94066 147.857 3.91715C147.274 3.82537 146.35 3.70969 144.426 3.58719C142.656 3.47453 139.664 3.42401 135.93 3.42312C136.183 3.43865 136.435 3.45371 136.688 3.46817C137.324 3.50451 137.962 3.53764 138.601 3.56925C138.846 3.58132 139.087 3.59314 139.333 3.60477C139.729 3.62358 140.126 3.64204 140.523 3.66007C140.791 3.67227 141.06 3.68426 141.329 3.69632C141.329 3.69632 141.33 3.69632 141.33 3.69632C141.703 3.71307 142.077 3.72991 142.453 3.74723C142.585 3.75367 142.715 3.75986 142.844 3.76591C143.359 3.78995 143.864 3.8133 144.446 3.85856C144.517 3.86606 144.594 3.87575 144.651 3.88383C144.713 3.89234 144.772 3.90101 144.828 3.90983C144.878 3.91761 144.925 3.92553 144.97 3.9329C144.976 3.93388 144.982 3.93486 144.988 3.93583C145.039 3.94408 145.087 3.9517 145.134 3.9589C145.18 3.9661 145.225 3.97303 145.269 3.97905C145.27 3.97905 145.27 3.97905 145.27 3.97905C145.316 3.98521 145.351 3.98985 145.4 3.99516C145.461 4.00181 145.514 4.00693 145.578 4.01201C145.64 4.01694 145.704 4.02134 145.769 4.02519C145.834 4.02903 145.9 4.03239 145.967 4.03544C146.035 4.0385 146.103 4.04134 146.172 4.04387C146.241 4.04639 146.31 4.0486 146.38 4.05083C146.451 4.05305 146.521 4.05529 146.593 4.05742C146.757 4.06237 146.914 4.10397 147.029 4.17461C147.145 4.24525 147.209 4.33867 147.208 4.43536C147.207 4.53206 147.142 4.625 147.025 4.69464C146.909 4.76426 146.751 4.80465 146.587 4.80817C146.542 4.80912 146.497 4.81018 146.452 4.8111C146.425 4.81165 146.398 4.81204 146.371 4.81257C146.299 4.81397 146.226 4.81553 146.152 4.81659C146.079 4.81766 146.005 4.81835 145.93 4.81879C145.855 4.81923 145.778 4.81937 145.701 4.81879C145.624 4.81821 145.545 4.81697 145.465 4.81476C145.387 4.81269 145.298 4.80905 145.218 4.80451C145.16 4.80132 145.088 4.79587 145.028 4.79096C144.966 4.78582 144.904 4.78009 144.845 4.77411C144.786 4.76813 144.728 4.76178 144.674 4.7558C144.668 4.75519 144.662 4.75458 144.656 4.75397C144.608 4.74868 144.561 4.74353 144.516 4.73896C144.467 4.73384 144.42 4.72949 144.376 4.72577C144.327 4.72159 144.297 4.71994 144.261 4.71808C143.778 4.70601 143.181 4.7085 142.613 4.71076C142.541 4.71104 142.47 4.71124 142.4 4.71149C142.026 4.71326 141.653 4.71548 141.281 4.71772C141.01 4.71934 140.739 4.72103 140.467 4.72248C140.068 4.72463 139.667 4.72634 139.267 4.7276C139.018 4.72834 138.774 4.72882 138.526 4.72907C137.879 4.72979 137.229 4.72878 136.579 4.72431C135.929 4.71982 135.276 4.712 134.621 4.69867C133.97 4.68538 133.293 4.66552 132.639 4.63532C132.159 4.61274 131.666 4.5734 131.21 4.53277C130.965 4.51089 130.725 4.4887 130.489 4.46649C130.488 4.46637 130.487 4.46624 130.487 4.46612C130.279 4.44663 130.074 4.42733 129.871 4.40899C129.435 4.3695 129.007 4.3343 128.578 4.30462C128.151 4.27493 127.725 4.25071 127.296 4.23211C126.871 4.21369 126.438 4.20037 126.009 4.19219C125.578 4.18393 125.156 4.18058 124.711 4.18084C124.127 4.18156 123.547 4.18827 122.951 4.19622C122.36 4.20433 121.764 4.2145 121.166 4.22478C120.957 4.22839 120.748 4.23174 120.538 4.2354C120.537 4.2354 120.537 4.2354 120.536 4.2354C120.148 4.24218 119.76 4.24901 119.371 4.25555C118.77 4.26563 118.168 4.27523 117.564 4.28301C116.96 4.29076 116.352 4.29684 115.741 4.29913C115.129 4.30121 114.502 4.29995 113.871 4.28777C113.309 4.27725 112.742 4.26323 112.187 4.24932C112.041 4.24566 111.895 4.242 111.748 4.23833C111.054 4.2212 110.381 4.20754 109.716 4.20501C109.052 4.20218 108.388 4.20992 107.718 4.22625C107.05 4.2425 106.373 4.26685 105.691 4.2962C105.007 4.32568 104.33 4.35968 103.641 4.39691C102.956 4.43399 102.268 4.47381 101.572 4.51593C101.185 4.53926 100.774 4.56069 100.385 4.57892C99.9921 4.59733 99.6018 4.61361 99.2166 4.62873C99.0603 4.63488 98.9047 4.64073 98.7502 4.64667C98.5249 4.65534 98.3016 4.6638 98.0818 4.67267C97.7108 4.68765 97.3489 4.70366 96.9973 4.72248C96.6459 4.74128 96.3048 4.76315 95.9753 4.78986C95.6342 4.81762 95.3532 4.84584 95.017 4.88618C94.1981 4.96397 93.6908 4.98786 93.127 5.01472C93.0159 5.02001 92.9025 5.02564 92.7843 5.03157C92.1083 5.0617 91.4329 5.08417 90.7663 5.10115C90.0933 5.11817 89.4309 5.12964 88.7599 5.13631C88.0954 5.14295 87.4262 5.14454 86.7596 5.1418C86.094 5.13908 85.4296 5.1319 84.7634 5.1202C84.0978 5.10853 83.4184 5.09196 82.7661 5.07186C82.3891 5.06028 81.9887 5.04484 81.6167 5.02901C81.3484 5.01761 81.0839 5.00563 80.8246 4.99385C80.7187 4.98904 80.6134 4.98425 80.5092 4.97957C80.1497 4.96343 79.8004 4.94847 79.4629 4.93709C79.1254 4.92567 78.7987 4.91766 78.4791 4.91475C78.1589 4.91181 77.8457 4.91399 77.5323 4.92134C77.2074 4.92922 76.9377 4.93977 76.5928 4.95906C76.3681 4.9718 76.148 4.98465 75.9286 4.99751C75.6001 5.01677 75.274 5.03643 74.9454 5.05684C74.6173 5.07723 74.2933 5.09807 73.9677 5.11983C73.863 5.12683 73.7524 5.13422 73.6474 5.14144C73.323 5.16375 73.0022 5.18672 72.6818 5.21102C72.362 5.23528 72.0451 5.26063 71.7295 5.28756C71.4127 5.3146 71.1011 5.34276 70.7833 5.37326C70.2433 5.42526 69.7264 5.44939 69.2737 5.46555C68.8156 5.48152 68.3875 5.49039 67.9708 5.49887C67.8928 5.50046 67.8148 5.50205 67.7367 5.50363C67.4006 5.51028 67.07 5.51655 66.7444 5.52414C66.3431 5.53345 65.9491 5.54457 65.5538 5.55783C65.1619 5.57093 64.7662 5.5863 64.3765 5.60434C63.9831 5.62261 63.607 5.64235 63.2016 5.6666C62.8007 5.69039 62.3936 5.72144 61.9473 5.75523C61.5051 5.78877 61.041 5.82324 60.5711 5.85337C60.1016 5.88361 59.6247 5.90974 59.1512 5.93028C58.6767 5.95094 58.2007 5.96657 57.7313 5.97752C57.2594 5.98857 56.7902 5.99504 56.3235 5.99803C55.8578 6.00104 55.3768 6.00052 54.9266 5.99693C54.1976 5.99113 53.4719 5.98293 52.7449 5.97386C52.0219 5.96475 51.2966 5.95458 50.5729 5.94383C49.8505 5.93308 49.1272 5.92185 48.4051 5.91014C47.6827 5.89843 46.9604 5.8864 46.2392 5.87425C46.0797 5.87156 45.9202 5.86888 45.7606 5.86619C45.199 5.85672 44.6374 5.84724 44.0781 5.83799C44.0743 5.83787 44.0704 5.83775 44.0666 5.83763C43.3467 5.82587 42.64 5.81443 41.9261 5.80467C41.6641 5.80118 41.4123 5.79789 41.1564 5.79515C40.9003 5.79242 40.6489 5.79019 40.3952 5.78855C40.1412 5.78693 39.8887 5.78601 39.6401 5.78599C39.3887 5.78602 39.1437 5.78687 38.8965 5.78929C38.6698 5.79141 38.4448 5.79522 38.1989 5.79918C38.1765 5.79954 38.1541 5.79991 38.1316 5.80027C37.8626 5.80463 37.5566 5.8074 37.2722 5.8054C36.5188 5.79949 35.7846 5.7967 35.0371 5.79698C34.2892 5.79725 33.5429 5.80048 32.7904 5.80504C32.4966 5.80679 32.2014 5.80895 31.9061 5.8109C31.4467 5.81392 30.9857 5.81696 30.5232 5.81932C29.7623 5.82324 28.9998 5.82502 28.2323 5.82261C27.4678 5.82021 26.6983 5.81345 25.9323 5.80174C25.1669 5.79009 24.3949 5.77357 23.6329 5.75267C22.784 5.72928 21.94 5.70345 21.0922 5.67649C20.2457 5.64951 19.3988 5.62124 18.5556 5.59226C17.7094 5.56324 16.8653 5.53344 16.0209 5.5029C15.176 5.47235 14.3317 5.44109 13.4868 5.40915C12.9811 5.39003 12.4756 5.37056 11.9698 5.35092C11.7022 5.36855 11.4457 5.38581 11.1989 5.40219C9.37542 5.52322 8.05695 5.61052 6.31751 5.67063C6.15092 5.67974 6.01538 5.69271 5.85047 5.70836C5.81901 5.71134 5.78564 5.71433 5.75161 5.71751C5.53609 5.73766 5.2886 5.75874 4.94431 5.77208C4.25747 5.79868 3.20471 5.79289 1.84429 5.61753C1.50064 5.57323 1.28196 5.37327 1.35603 5.17074C1.4081 5.02868 1.59062 4.92312 1.81336 4.88802C1.40184 4.86392 0.991436 4.83872 0.582087 4.81368C0.418695 4.80365 0.2653 4.75704 0.156298 4.68294C0.0473574 4.60881 -0.00838572 4.51359 0.00102391 4.41706C0.0104366 4.3205 0.0845925 4.22993 0.207247 4.164C0.329857 4.09814 0.490732 4.06247 0.654871 4.06402C1.09031 4.06832 1.52427 4.07267 1.95832 4.07574C2.39273 4.07885 2.8251 4.08066 3.25874 4.0816C3.69226 4.08255 4.12563 4.08243 4.56037 4.0816C4.9934 4.08073 5.42731 4.07934 5.862 4.07721C6.29944 4.07512 6.72864 4.0722 7.16484 4.06915C7.42618 4.06729 7.69067 4.06544 7.95031 4.06329C8.04707 4.06255 8.14151 4.06153 8.23598 4.06073C8.31321 4.06007 8.39082 4.05953 8.47071 4.05889C9.31117 4.05154 10.1597 4.0433 11.0006 4.03436C11.8455 4.02546 12.6895 4.01605 13.5335 4.00616C14.3779 3.99627 15.2217 3.98573 16.0658 3.97503C16.9095 3.96432 17.7527 3.95325 18.5975 3.9417C19.4391 3.93011 20.2843 3.91826 21.1273 3.90545C21.7795 3.89555 22.4261 3.88491 23.0737 3.87359C23.3287 3.85421 23.581 3.83591 23.8301 3.81829C24.555 3.76699 25.2809 3.69967 25.996 3.63298C24.7232 3.66614 23.7008 3.71793 22.7274 3.76738C22.5969 3.77401 22.4672 3.78067 22.338 3.78716C21.0186 3.8534 19.7441 3.90948 18.0297 3.89702C13.1541 3.8616 10.3269 3.83576 8.56533 3.78752C6.80404 3.7393 6.04727 3.6678 5.34098 3.52568C4.34298 3.32483 2.41677 3.21058 1.44883 3.20633C1.09721 3.20479 0.813402 3.03535 0.814997 2.82803C0.816695 2.62065 1.10322 2.45367 1.45489 2.45521C2.47696 2.45969 4.5613 2.57581 5.74918 2.81484C6.27826 2.92132 6.88666 2.99001 8.62114 3.0375C10.3558 3.085 13.1568 3.11042 18.0419 3.1459C19.6945 3.15791 20.9211 3.10451 22.2264 3.03897C22.3544 3.03254 22.4833 3.0258 22.6133 3.01919C22.6142 3.01919 22.615 3.01919 22.6158 3.01919C23.8148 2.95826 25.1204 2.89184 26.8809 2.86245C30.9388 2.79469 36.3973 2.66334 37.6931 2.58925C37.9474 2.5747 38.1932 2.55837 38.4525 2.54127C39.4477 2.47563 40.6492 2.39646 43.3569 2.34388C43.9492 2.33238 44.6428 2.3257 45.3998 2.32264C46.5356 2.22157 47.6385 2.12782 48.5974 2.07214C49.4251 2.02409 50.1882 1.9357 50.9277 1.83886C51.1406 1.81098 51.3549 1.78182 51.5689 1.7528C52.0848 1.68279 52.601 1.61281 53.104 1.5587C53.505 1.51556 53.9249 1.46372 54.3686 1.40891C55.9852 1.20926 57.9224 0.970016 60.4467 0.966884C63.1227 0.963564 65.4138 1.00675 67.3898 1.04892C65.9386 1.00013 64.8184 0.941687 63.8852 0.889611C63.7092 0.879787 63.5405 0.870245 63.3781 0.861045C62.2312 0.796066 61.3974 0.748826 60.5038 0.750813C56.2354 0.760304 54.6344 0.823966 52.828 1.0079C52.3524 1.05633 51.8278 1.12084 51.2626 1.19028C50.1329 1.32906 48.8407 1.48773 47.4523 1.57847C46.1591 1.66299 44.7129 1.78775 43.1804 1.91979C43.1798 1.91979 43.1792 1.91979 43.1786 1.91979C42.8792 1.94559 42.5762 1.97167 42.2706 1.9978C40.4074 2.15711 38.4478 2.31729 36.5401 2.41822C36.336 2.42902 36.0916 2.4439 35.811 2.46107C34.1914 2.56016 31.348 2.73412 27.8757 2.62257C27.113 2.59807 26.3205 2.54615 25.4162 2.4867C25.1407 2.4686 24.8547 2.44958 24.5561 2.43067C23.267 2.34907 21.7007 2.26237 19.6152 2.21021C17.8941 2.16716 15.7965 2.14651 13.6184 2.12488C12.5455 2.11422 11.4531 2.10315 10.3765 2.08936C7.12434 2.04769 4.14364 1.98159 1.16861 1.9154C1.168 1.9154 1.1674 1.9154 1.16679 1.9154C0.815324 1.90758 0.540017 1.73297 0.552366 1.52574C0.564844 1.31862 0.859764 1.15689 1.21107 1.16465C4.18786 1.23087 7.15944 1.29707 10.4007 1.3386C11.461 1.35219 12.5449 1.36314 13.6135 1.37376C15.8023 1.39551 17.929 1.41637 19.6662 1.45982C21.7872 1.51288 23.3821 1.60122 24.6889 1.68395C25.0037 1.70387 25.2996 1.72336 25.5805 1.74181C26.4749 1.80056 27.2184 1.84968 27.9418 1.87292C31.3039 1.98093 34.0397 1.81388 35.6654 1.71471C35.9538 1.69712 36.2072 1.68181 36.423 1.6704C38.2932 1.57145 40.223 1.4139 42.0844 1.25474C42.3864 1.22891 42.6869 1.20316 42.9851 1.17746C42.9857 1.17734 42.9863 1.17722 42.9869 1.1771C44.519 1.04507 45.9913 0.918202 47.3085 0.832115C48.6455 0.744734 49.8115 0.600808 50.9023 0.46626C51.4875 0.394063 52.0512 0.324821 52.6078 0.268134C54.5242 0.0729992 56.2138 0.0095788 60.4959 5.93227e-05ZM2.44962 4.92428C3.29547 5.01838 3.98465 5.03823 4.49789 5.03195C4.06201 5.01057 3.62718 4.98814 3.19202 4.96493C2.94434 4.95172 2.69695 4.93818 2.44962 4.92428ZM45.5035 3.07302C45.3664 3.08524 45.2284 3.09759 45.0898 3.11001C45.4723 3.10413 45.8549 3.09866 46.2368 3.09317C46.7058 3.08643 47.1746 3.08006 47.6433 3.07376C46.8981 3.07129 46.1759 3.07058 45.5035 3.07302ZM60.4528 1.718C58.0722 1.72096 56.2931 1.94 54.6889 2.13769C54.2269 2.19462 53.7789 2.24968 53.3357 2.29737C53.1519 2.31714 52.9682 2.339 52.7831 2.36219C53.8613 2.37396 54.8523 2.38632 55.6636 2.39661C58.0845 2.42731 59.4622 2.49129 60.673 2.54749C61.0233 2.56376 61.3599 2.5793 61.7035 2.59327C61.9877 2.56807 62.2829 2.54307 62.5811 2.52113C62.9987 2.49011 63.4501 2.46035 63.8797 2.43506C64.3109 2.40961 64.7492 2.38685 65.1796 2.36768C65.6135 2.34834 66.0434 2.33221 66.4715 2.31824C66.8742 2.30504 67.2756 2.29389 67.6639 2.28308C67.6862 2.28247 67.7084 2.28186 67.7306 2.28125C68.1411 2.26975 68.5405 2.25874 68.9073 2.24353C69.2808 2.2279 69.5913 2.20948 69.8669 2.18164C70.211 2.14697 70.564 2.11368 70.9131 2.08276C71.2626 2.05177 71.6106 2.02294 71.9576 1.99596C72.3053 1.96894 72.6496 1.94369 72.9948 1.91979C73.1064 1.91206 73.2232 1.90412 73.3338 1.89672C73.3848 1.89331 73.4359 1.88981 73.4867 1.88646C72.8114 1.88388 72.1103 1.87984 71.3856 1.87365C70.3388 1.8647 69.2212 1.84016 67.9884 1.81322C65.8854 1.76726 63.4471 1.71429 60.4528 1.718ZM83.7226 1.81944C83.4291 1.8214 82.9991 1.82726 82.4446 1.83483C82.3135 1.83661 82.1753 1.83874 82.0304 1.84069C82.0338 1.84087 82.0373 1.84087 82.0407 1.84105C82.3998 1.86019 82.7315 1.87687 83.0894 1.89232C83.7274 1.91973 84.3472 1.94323 84.9733 1.96337C85.6018 1.98354 86.2285 2.00006 86.856 2.01318C87.4844 2.0263 88.1146 2.03572 88.7393 2.04137C89.3701 2.047 89.9918 2.04919 90.6196 2.0465C90.8195 2.04565 91.0201 2.0443 91.2206 2.04247C90.7729 2.02357 90.3081 2.00798 89.8171 1.99157C89.425 1.97846 89.016 1.96474 88.5858 1.94835C88.4212 1.94209 88.222 1.93248 87.9896 1.92125C87.0685 1.87678 85.6233 1.80681 83.7226 1.81944ZM96.2282 1.83556C96.3739 1.83058 96.5187 1.82609 96.6619 1.82237C97.0694 1.81182 97.4667 1.80579 97.8562 1.80113C98.1297 1.79789 98.4 1.79557 98.6665 1.79308C98.7789 1.79202 98.8913 1.79087 99.0025 1.78978C99.1889 1.78796 99.3739 1.78578 99.5575 1.78355C98.2694 1.76093 97.0103 1.74359 95.6981 1.73814C95.6808 1.73807 95.6634 1.73821 95.6459 1.73814C95.8445 1.7713 96.0386 1.80378 96.2282 1.83556Z" fill="#EBC465"/>
</svg>
