<svg width="32" height="31" viewBox="0 0 32 31" fill="none" xmlns="http://www.w3.org/2000/svg">
<path d="M17.8404 29.1461C17.2645 29.2615 16.7217 29.3274 16.043 29.4051C16.0427 29.4051 16.0423 29.4052 16.042 29.4053C15.9451 29.4163 15.8453 29.4275 15.7425 29.4392C14.9155 29.5355 13.8437 29.648 12.2927 29.9169C12.2551 29.9235 12.2177 29.9301 12.1806 29.9366C10.4754 30.2359 9.11223 30.3801 8.25612 30.4262C8.09296 30.4349 7.92713 30.4558 7.51115 30.5305C7.30255 30.568 7.04036 30.6173 6.68907 30.6836L5.55837 30.9714L5.10246 29.7717C5.06948 29.6654 5.03451 29.5526 4.99689 29.4311C4.91155 29.1557 4.81282 28.8368 4.69755 28.4631C4.38556 27.4492 3.89269 25.9839 3.3838 24.5139C3.27473 24.1984 3.16152 23.8804 3.04846 23.5683C2.66677 22.5163 2.28312 21.5092 2.00464 20.7327C1.59687 19.5968 1.22572 18.4782 0.879346 17.2245C0.56635 16.0763 0.262775 14.8156 0.0757233 13.3012C-0.0649304 12.1383 -0.00574692 10.9676 0.219415 9.81573C0.248047 9.66927 0.279378 9.52257 0.313383 9.37619C0.548275 8.36707 0.905653 7.37435 1.38497 6.36509C1.9455 5.19295 2.54611 4.24572 3.19575 3.36108C3.55232 2.87909 3.94481 2.42344 4.40443 1.99608C4.92052 1.51749 5.52272 1.07331 6.2503 0.718594C7.38435 0.130168 9.29685 -0.219657 11.0758 0.15541C11.2296 0.184862 11.3761 0.216547 11.527 0.25293C11.5278 0.253111 11.5286 0.253293 11.5293 0.253474C12.2541 0.428383 12.9429 0.682404 13.5661 0.965827C14.3439 1.31694 15.0132 1.76782 15.518 2.20548C16.9539 3.52254 17.2088 4.25567 17.5264 4.75447C17.6349 4.95198 17.7298 5.13764 17.8304 5.36258C18.2018 6.17371 18.5431 7.45388 18.7445 8.73201C18.7453 8.73689 18.7462 8.74177 18.747 8.74665C18.7817 8.95911 18.6961 9.14708 18.5593 9.16706C18.4224 9.18686 18.2866 9.03418 18.2526 8.82606C18.1444 8.16106 18.0111 7.5126 17.8524 6.93803C17.7296 6.9391 17.6016 6.8101 17.5481 6.62864C17.3874 6.21012 16.9987 4.66646 15.3421 3.12784C15.4334 3.25129 15.5041 3.36004 15.5619 3.4563C15.6301 3.56986 15.6773 3.65942 15.7168 3.73661C15.7986 3.89816 15.8496 4.00567 15.953 4.18633C16.211 4.5912 16.5779 5.25568 16.8525 6.01048C16.9231 6.20135 16.8678 6.39273 16.7366 6.43561C16.605 6.47831 16.4497 6.36383 16.3828 6.18333C16.3814 6.17981 16.3801 6.17628 16.3788 6.17275C16.1191 5.46037 15.7649 4.81929 15.513 4.42773C15.4497 4.32732 15.3938 4.24172 15.3518 4.17748C15.3183 4.12606 15.2755 4.0622 15.255 4.02428C15.2523 4.01923 15.2472 4.00953 15.2416 3.99749C15.2416 3.99727 15.2415 3.99706 15.2414 3.99684C15.2383 3.99012 15.2222 3.95594 15.2124 3.91281C15.2104 3.90409 15.2062 3.88499 15.2043 3.86006C15.2018 3.85538 15.1993 3.85069 15.1968 3.84601C15.1614 3.78078 15.1244 3.715 15.081 3.64524C14.9056 3.3822 14.6339 2.93142 13.7484 2.30846C13.574 2.18916 13.3684 2.06488 13.1243 1.94074C12.213 1.48318 10.8287 0.948053 9.14312 1.01853C9.28719 1.02221 9.43045 1.03009 9.5739 1.04188C9.93389 1.0715 10.2924 1.12633 10.6467 1.20425C10.7802 1.23369 10.9157 1.2669 11.0488 1.30295C11.2652 1.3615 11.4793 1.42827 11.6925 1.50293C11.8339 1.55257 11.9803 1.60751 12.119 1.66365C12.1193 1.66376 12.1196 1.66387 12.12 1.66398C12.3168 1.74341 12.5083 1.82786 12.7035 1.92084C12.7701 1.95292 12.836 1.98537 12.9017 2.01838C12.9524 2.04383 13.003 2.0697 13.0538 2.09622C13.2593 2.20409 13.4576 2.32079 13.6675 2.47069C13.6985 2.49445 13.7311 2.52134 13.7548 2.54197C13.7804 2.56404 13.8045 2.58567 13.8275 2.60695C13.8477 2.62564 13.8665 2.6438 13.8845 2.66114C13.8869 2.66346 13.8893 2.66578 13.8917 2.6681C13.9117 2.68751 13.9307 2.70599 13.9489 2.72373C13.967 2.74144 13.9843 2.75856 14.0015 2.77501C14.0016 2.77514 14.0018 2.77526 14.002 2.77538C14.0203 2.79274 14.0341 2.80595 14.0537 2.82379C14.0782 2.8462 14.0993 2.86522 14.125 2.88776C14.1498 2.90958 14.1757 2.93206 14.2018 2.95458C14.2281 2.97732 14.2551 3.00049 14.2822 3.02389C14.3094 3.04733 14.3368 3.07117 14.3642 3.09519C14.3915 3.11914 14.4193 3.14359 14.4471 3.16858C14.4749 3.19353 14.5027 3.21893 14.5304 3.24457C14.5938 3.30341 14.6375 3.38045 14.6495 3.45595C14.6616 3.53154 14.6418 3.59924 14.5969 3.64542C14.5519 3.69164 14.4853 3.71335 14.4118 3.70838C14.3383 3.70332 14.2633 3.67186 14.2017 3.62208C14.1849 3.60845 14.1678 3.59488 14.1506 3.58127C14.1404 3.57319 14.1302 3.56498 14.1198 3.55689C14.092 3.53507 14.0639 3.51366 14.0356 3.49209C14.0073 3.47052 13.9787 3.44876 13.9494 3.42681C13.9202 3.40483 13.89 3.38238 13.8602 3.36011C13.8303 3.33774 13.7997 3.31472 13.7685 3.29103C13.7381 3.26804 13.7028 3.24088 13.6725 3.21695C13.6502 3.1994 13.6229 3.17707 13.6 3.15834C13.5761 3.13878 13.5525 3.11926 13.5297 3.10027C13.5067 3.08119 13.4847 3.06269 13.4638 3.04534C13.4615 3.0435 13.4593 3.04165 13.457 3.03981C13.4384 3.02444 13.4202 3.00962 13.4028 2.99584C13.3834 2.98043 13.3646 2.96619 13.3465 2.95294C13.3266 2.93831 13.3141 2.92998 13.2986 2.91987C13.1566 2.83367 12.9833 2.74362 12.7982 2.66038C12.7105 2.62088 12.6226 2.58295 12.5365 2.54716C12.5013 2.53251 12.4674 2.51855 12.4319 2.50423C12.2452 2.42912 12.061 2.36156 11.8742 2.29958C11.7408 2.25534 11.6009 2.21249 11.4666 2.17488C11.264 2.11807 11.0624 2.06921 10.861 2.02842C10.7352 2.00294 10.6117 1.98093 10.4869 1.96184C10.1603 1.9119 9.8317 1.88362 9.50656 1.87863C9.18167 1.87357 8.85748 1.89173 8.53699 1.93354C8.21746 1.97492 7.88973 2.04246 7.57689 2.12914C7.34674 2.19225 7.11018 2.26309 6.89213 2.34029C6.77492 2.38165 6.66075 2.42562 6.54875 2.47248C6.54835 2.47262 6.54795 2.47275 6.54755 2.47288C6.44937 2.51398 6.35297 2.55738 6.25823 2.60361C6.05535 2.70246 5.86009 2.81411 5.67243 2.93861C5.48451 3.06335 5.30498 3.20021 5.13181 3.35074C4.96069 3.49942 4.79436 3.66307 4.63937 3.83439C4.52746 3.95807 4.42217 4.08421 4.31832 4.21863C4.27534 4.2743 4.23284 4.33056 4.19062 4.38771C3.99581 4.65195 3.81717 4.92021 3.64495 5.20407C3.4779 5.47979 3.31472 5.77753 3.1711 6.07057C3.11968 6.17524 3.07008 6.27995 3.02265 6.38477C3.02245 6.38518 3.02226 6.38557 3.02207 6.38598C2.93525 6.57791 2.85114 6.77885 2.77502 6.97723C2.65788 7.28223 2.55243 7.59832 2.46196 7.9161C2.3712 8.23449 2.29409 8.55854 2.22985 8.88592C2.16507 9.21503 2.11237 9.55416 2.06807 9.8989C2.02881 10.2054 1.99965 10.5182 1.98256 10.8251C1.97804 10.9063 1.97431 10.9875 1.97137 11.0689C1.95759 11.4549 1.96356 11.832 1.99053 12.2039C2.01741 12.5766 2.06542 12.9482 2.13175 13.3214C2.19795 13.694 2.28231 14.0688 2.38116 14.4451C2.48038 14.8225 2.59164 15.1925 2.71552 15.5693C2.83815 15.9415 2.97159 16.3147 3.11448 16.6907C3.19384 16.8998 3.27806 17.1215 3.3586 17.3325C3.43968 17.5449 3.52066 17.7558 3.60171 17.965C3.63458 18.0498 3.66723 18.1339 3.70005 18.2176C3.74788 18.3396 3.79571 18.4607 3.84354 18.5799C3.92414 18.7806 4.0047 18.9761 4.08586 19.1658C4.16695 19.3553 4.24855 19.5381 4.33145 19.7139C4.41736 19.896 4.4918 20.0446 4.58535 20.2213C4.80052 20.6565 4.9198 20.9327 5.05235 21.2408C5.07847 21.3015 5.10529 21.3635 5.13327 21.4281C5.29081 21.7983 5.44348 22.1725 5.58936 22.5457C5.72903 22.9033 5.86263 23.2602 5.99142 23.6233C5.99818 23.6423 6.00491 23.6613 6.0116 23.6802C6.14348 24.0528 6.2719 24.4267 6.39766 24.8033C6.52245 25.1769 6.64481 25.5543 6.76312 25.9312C6.88167 26.3086 6.99917 26.6955 7.10855 27.067C7.17181 27.2817 7.23685 27.5104 7.29616 27.7228C7.33912 27.8765 7.38058 28.027 7.42149 28.1754C7.43809 28.2357 7.45486 28.2964 7.47116 28.3555C7.5258 28.5532 7.57938 28.7452 7.63322 28.9311L6.14155 28.0737C6.14887 28.0725 6.15617 28.0712 6.16344 28.07C6.35971 28.0366 6.55088 28.0019 6.73613 27.9649C6.92192 27.9278 7.10292 27.8882 7.2835 27.8452C7.47063 27.8005 7.62576 27.7607 7.82333 27.706C7.95193 27.6704 8.07817 27.6352 8.20379 27.6001C8.39204 27.5477 8.579 27.4953 8.76742 27.4423C8.95543 27.3894 9.14207 27.3366 9.32809 27.2835C9.38844 27.2663 9.45066 27.2484 9.5118 27.231C9.69723 27.1777 9.88043 27.1246 10.0646 27.0705C10.247 27.0168 10.4283 26.9627 10.6086 26.9078C10.7881 26.853 10.9676 26.7976 11.1474 26.7406C11.2736 26.7008 11.3938 26.6654 11.5162 26.6318C11.6955 26.5825 11.8675 26.5404 12.0264 26.5032C12.2974 26.4401 12.5492 26.3871 12.7952 26.3361C12.8412 26.3266 12.8871 26.3171 12.933 26.3077C13.1305 26.2672 13.3247 26.228 13.5155 26.1889C13.7502 26.1407 13.9799 26.0927 14.2095 26.0433C14.4369 25.9944 14.6657 25.9438 14.8899 25.892C15.1161 25.8397 15.3314 25.7882 15.562 25.7303C15.7904 25.6731 16.02 25.6103 16.2708 25.5406C16.5194 25.4715 16.7778 25.3989 17.0394 25.3267C17.3003 25.2547 17.564 25.1831 17.8244 25.1136C18.0847 25.044 18.3463 24.9752 18.6008 24.9082C18.8574 24.8407 19.1108 24.7742 19.3609 24.7074C19.6115 24.6405 19.8659 24.5713 20.1045 24.5047C20.4889 24.3975 20.8661 24.284 21.2367 24.1609C21.6047 24.0388 21.9668 23.9069 22.3191 23.7641C22.6704 23.6218 23.0133 23.468 23.3449 23.3021C23.6766 23.1361 23.9977 22.9575 24.3059 22.7656C24.374 22.7231 24.4416 22.68 24.5087 22.6361C24.7443 22.4821 24.9733 22.3187 25.1917 22.1485C25.1932 22.1474 25.1948 22.1462 25.1963 22.1451C25.4785 21.9248 25.7421 21.6945 25.9935 21.4476C26.0856 21.357 26.1728 21.2676 26.2597 21.1743C26.3453 21.0823 26.4278 20.9897 26.5095 20.8936C26.5916 20.7969 26.6702 20.6998 26.7452 20.6026C26.8211 20.5041 26.8935 20.4054 26.9645 20.3029C27.0283 20.2109 27.0892 20.1178 27.155 20.0136C27.161 20.0041 27.167 19.9946 27.173 19.985C27.245 19.8701 27.3251 19.739 27.3989 19.6181C27.5977 19.2931 27.7718 18.9674 27.9351 18.6183C28.0151 18.447 28.0922 18.2704 28.1664 18.0878C28.2335 17.9225 28.2938 17.7565 28.347 17.5898C28.3889 17.4587 28.4262 17.3278 28.4594 17.1962C28.511 16.9919 28.552 16.7867 28.5822 16.5822C28.6319 16.2455 28.6523 15.9112 28.6432 15.5803C28.634 15.2506 28.5953 14.9239 28.5271 14.6041C28.459 14.2846 28.3602 13.9674 28.2326 13.6595C28.0908 13.3164 27.9108 12.9821 27.6931 12.6569C27.4759 12.3323 27.2218 12.0184 26.9386 11.7201C26.6544 11.4208 26.3408 11.1366 26.0038 10.8679C25.9818 10.8503 25.9597 10.8329 25.9373 10.8154C25.6454 10.5844 25.3408 10.3838 25.0227 10.2171C24.8194 10.1104 24.6101 10.0173 24.3947 9.93841C24.2758 9.91468 24.1601 9.89619 24.0495 9.88198C23.2278 9.78715 22.6209 9.8488 21.7863 9.99926C21.7066 10.0168 21.6418 10.0357 21.5635 10.0595C21.5485 10.064 21.5326 10.0688 21.5164 10.0738C21.4133 10.1055 21.2955 10.1418 21.1278 10.1872C20.7929 10.278 20.2732 10.4048 19.5371 10.5342C19.3512 10.5669 19.1927 10.4829 19.1856 10.3419C19.1807 10.243 19.2532 10.1423 19.363 10.0798C19.1408 10.1393 18.9188 10.2021 18.6961 10.2686C18.6072 10.2951 18.515 10.2974 18.4391 10.2739C18.3633 10.2504 18.3102 10.2031 18.2917 10.1412C18.2733 10.0793 18.291 10.0074 18.3411 9.94084C18.3912 9.8743 18.4692 9.8189 18.5583 9.7864C18.7941 9.7006 19.0297 9.61875 19.2651 9.54096C19.5011 9.46305 19.7355 9.38962 19.9713 9.32121C20.2064 9.25301 20.4429 9.18974 20.6791 9.13341C20.9153 9.07705 21.1509 9.02773 21.3882 8.98625C21.6265 8.94467 21.8602 8.91185 22.0974 8.88848C22.2393 8.87447 22.3831 8.86404 22.5235 8.85749C22.576 8.85509 22.6271 8.85307 22.6781 8.85171C22.7199 8.8506 22.7617 8.84992 22.8049 8.84955C23.2584 8.84499 23.712 8.88364 24.1506 8.9705C24.5915 9.05757 25.0206 9.19351 25.4331 9.37628C25.8119 9.54394 26.1765 9.75067 26.5241 9.98977C26.5566 10.0122 26.5889 10.0347 26.621 10.0572C27.0073 10.329 27.3748 10.623 27.7171 10.9421C28.0581 11.26 28.3743 11.604 28.6545 11.9713C28.8707 12.2545 29.0653 12.5511 29.2349 12.86C29.31 12.9758 29.3816 13.0963 29.4469 13.2147C29.6386 13.5623 29.8086 13.9268 29.9417 14.3034C29.7578 13.6206 29.4952 13.112 29.2069 12.6591C29.1683 12.5989 29.1288 12.5396 29.0883 12.4806C28.6733 11.8835 28.2069 11.3532 27.5069 10.7056C27.1887 10.4141 26.8713 10.1617 26.5615 9.93709C24.9523 8.78952 23.6607 8.71962 22.8574 8.66888C21.8816 8.64292 21.4483 8.70103 21.0331 8.67748C20.4434 8.64533 19.3312 8.89443 18.7956 9.09053C18.6007 9.15866 18.4045 9.11173 18.3569 8.98192C18.3092 8.85222 18.4315 8.68733 18.6314 8.61746C19.2074 8.40623 20.4497 8.1198 21.1817 8.16783C21.5058 8.19298 21.8698 8.14146 22.8945 8.16923C23.7332 8.22322 25.1327 8.3034 26.8516 9.52888C27.1761 9.76391 27.5103 10.0294 27.8474 10.3383C28.5568 10.9953 29.0392 11.5372 29.4818 12.1674C29.5251 12.23 29.5678 12.2933 29.6095 12.3575C29.6097 12.358 29.61 12.3584 29.6102 12.3588C29.9909 12.9543 30.358 13.6651 30.5419 14.7088C30.7903 16.0315 30.5476 17.6633 30.0686 18.8719C29.696 19.8632 29.2727 20.6296 29.1072 20.9341C29.0326 21.0715 28.9599 21.2029 28.8812 21.3391C28.5672 21.8511 28.2153 22.525 27.0025 23.6671C26.7332 23.9141 26.4047 24.1856 26.0273 24.4567C25.4986 24.9167 24.9413 25.3163 24.4326 25.6206C23.9939 25.8833 23.5903 26.1311 23.1918 26.3658C23.0777 26.433 22.9621 26.5003 22.8458 26.5663C22.5644 26.7259 22.2816 26.8777 21.9974 27.0119C21.7727 27.1183 21.5356 27.2308 21.2842 27.3453C20.3703 27.7619 19.2422 28.2093 17.7442 28.5081C16.1563 28.8233 14.8114 29.0127 13.6658 29.193C14.5095 29.074 15.1708 28.9997 15.7242 28.9364C15.8286 28.9245 15.9287 28.9131 16.0252 28.902C16.7075 28.8237 17.2071 28.7625 17.7384 28.6561C20.2793 28.1383 21.2465 27.7791 22.2796 27.3034C22.5519 27.1747 22.8474 27.0205 23.1614 26.8449C23.7892 26.4938 24.4881 26.0584 25.2181 25.5657C25.8983 25.1073 26.6123 24.5153 27.2718 23.8062C27.2721 23.8059 27.2724 23.8056 27.2727 23.8054C27.4011 23.6674 27.5283 23.5244 27.6535 23.3768C28.4135 22.4838 29.0582 21.442 29.5604 20.3882C29.6145 20.2754 29.6746 20.1426 29.7422 19.9849C29.8681 19.6914 30.0061 19.3409 30.159 18.9091C30.481 17.9917 30.8047 16.7505 30.7649 15.2921C30.751 14.8243 30.712 14.3338 30.5954 13.7811C30.5598 13.6136 30.5165 13.4393 30.4636 13.2602C30.2344 12.4902 29.8179 11.5606 28.9627 10.5677C28.5035 10.0348 27.9134 9.4924 27.2306 8.99559C26.858 8.72379 26.4473 8.47202 26.0072 8.26009C25.3872 7.96006 24.7072 7.74399 24.0232 7.62937C21.9359 7.29092 20.0567 7.7743 18.3465 8.33741C18.3462 8.33753 18.3458 8.33766 18.3455 8.33779C18.1424 8.40601 17.9449 8.35705 17.9025 8.22526C17.8606 8.09354 17.9925 7.92773 18.2005 7.85797C19.9464 7.28588 21.8952 6.7762 24.1166 7.1374C24.8349 7.25858 25.5577 7.48714 26.2169 7.80536C26.6865 8.03084 27.1245 8.29888 27.5207 8.58743C28.2392 9.10955 28.867 9.68677 29.3549 10.2555C30.2701 11.3217 30.7187 12.3339 30.9607 13.1706C31.0188 13.3726 31.065 13.5659 31.1022 13.7498C31.2193 14.3358 31.2533 14.829 31.2663 15.3039C31.3023 16.8549 30.9578 18.1493 30.6235 19.1006C30.4792 19.5071 30.3505 19.8381 30.227 20.1289C30.1555 20.2973 30.0902 20.4425 30.0325 20.5642C29.5263 21.6356 28.8713 22.7112 28.0866 23.6448C27.9608 23.7954 27.8285 23.9457 27.6965 24.0894C27.6962 24.0897 27.696 24.0901 27.6958 24.0904C27.0147 24.8328 26.2638 25.4632 25.5488 25.9488C24.8229 26.4418 24.1759 26.8506 23.5566 27.2052C23.2254 27.3944 22.8996 27.5675 22.5751 27.7225C21.4571 28.2434 20.4105 28.6227 17.8404 29.1461ZM19.7051 9.9911C20.1679 9.90743 20.5279 9.82522 20.7925 9.75768C20.564 9.79765 20.3334 9.84436 20.1019 9.89663C19.9698 9.92648 19.8377 9.95798 19.7051 9.9911ZM25.6873 24.0846C25.7485 24.0314 25.8097 23.9773 25.8704 23.9223C25.6917 24.0586 25.5082 24.1902 25.322 24.3164C25.0933 24.4714 24.8592 24.6189 24.6207 24.7592C25.0041 24.5433 25.3637 24.3147 25.6873 24.0846ZM17.6431 28.0176C19.0444 27.7374 20.065 27.3362 20.9577 26.9358C21.2143 26.8205 21.4634 26.7042 21.707 26.5899C21.8079 26.5425 21.9087 26.4929 22.0093 26.4415C21.3919 26.6483 20.817 26.8086 20.3454 26.9301C18.9364 27.286 18.1198 27.3946 17.4068 27.5006C17.1998 27.5303 17.0019 27.5576 16.7995 27.5862C16.6366 27.634 16.4672 27.6823 16.2957 27.7285C16.0555 27.7934 15.7951 27.8602 15.5472 27.9214C15.2984 27.9828 15.0451 28.0428 14.7963 28.0995C14.5456 28.1567 14.2966 28.2114 14.0493 28.2647C13.8167 28.3149 13.5842 28.3641 13.3604 28.4122C13.3476 28.4149 13.3348 28.4177 13.3219 28.4204C13.0852 28.4714 12.8548 28.5217 12.645 28.5718C12.431 28.6231 12.2538 28.6701 12.099 28.7197C12.0482 28.736 11.9971 28.7523 11.9458 28.7687C11.7982 28.8154 11.6515 28.8613 11.5065 28.906C11.3059 28.9676 11.1113 29.0266 10.9121 29.0853C10.7134 29.144 10.5188 29.2009 10.3218 29.2574C10.258 29.2757 10.1907 29.2949 10.1287 29.3126C10.0992 29.321 10.07 29.3293 10.041 29.3376C10.4331 29.2589 10.8383 29.1791 11.2598 29.0981C11.4938 29.0531 11.7346 29.0085 11.9849 28.9632C12.3756 28.8926 12.7889 28.8243 13.2288 28.7547C14.4499 28.5589 15.8802 28.3665 17.6431 28.0176ZM4.87231 27.2147C4.92851 27.3789 5.01259 27.6187 5.12069 27.9282C5.14624 28.0014 5.17338 28.0786 5.20158 28.1595C5.20106 28.1576 5.20041 28.1556 5.19989 28.1536C5.1451 27.948 5.09386 27.7585 5.03681 27.5545C4.93515 27.1913 4.83349 26.8378 4.72863 26.4838C4.623 26.1274 4.51489 25.773 4.40403 25.419C4.29232 25.0624 4.17911 24.7105 4.06296 24.3586C4.05541 24.3357 4.04781 24.3128 4.04017 24.2897C3.93195 23.9628 3.81934 23.6388 3.70158 23.3145C3.66146 23.204 3.62053 23.0928 3.57927 22.9823C3.65715 23.2348 3.73936 23.4954 3.82455 23.771C3.87802 23.9439 3.93247 24.1225 3.98727 24.3078C4.00283 24.3601 4.01828 24.4124 4.03361 24.4645C4.06028 24.5557 4.09331 24.6723 4.13019 24.8038C4.27794 25.3299 4.50852 26.1519 4.87231 27.2147ZM2.42912 20.2455C2.39642 20.165 2.36427 20.0849 2.33303 20.0054C2.24412 19.7791 2.16056 19.5564 2.08056 19.3378C2.0244 19.1843 1.96963 19.0312 1.91626 18.8807C1.89372 18.8171 1.87125 18.7536 1.84913 18.6906C1.81216 18.5854 1.77519 18.4799 1.73895 18.3756C1.96912 19.1155 2.21171 19.8295 2.47605 20.5645C2.47954 20.5742 2.48317 20.5839 2.48669 20.5937C2.46691 20.4751 2.44771 20.359 2.42912 20.2455Z" fill="#D03948"/>
</svg>
