<svg width="931" height="1028" viewBox="0 0 931 1028" fill="none" xmlns="http://www.w3.org/2000/svg" xmlns:xlink="http://www.w3.org/1999/xlink">
<g id="Repeat group 1_inner" data-figma-trr="r40u10-0f">
<path d="M465.391 173.878V235.637" stroke="white" stroke-width="4"/>
<path d="M465.391 173.878V235.637" stroke="url(#paint0_linear_1_2)" stroke-width="4"/>
</g>
<use xlink:href="#Repeat%20group%201_inner" transform="translate(86.0666 -66.4805) rotate(9)"/>
<use xlink:href="#Repeat%20group%201_inner" transform="translate(181.473 -118.679) rotate(18)"/>
<use xlink:href="#Repeat%20group%201_inner" transform="translate(283.871 -155.309) rotate(27)"/>
<use xlink:href="#Repeat%20group%201_inner" transform="translate(390.739 -175.47) rotate(36)"/>
<use xlink:href="#Repeat%20group%201_inner" transform="translate(499.444 -178.666) rotate(45)"/>
<use xlink:href="#Repeat%20group%201_inner" transform="translate(607.311 -164.816) rotate(54)"/>
<use xlink:href="#Repeat%20group%201_inner" transform="translate(711.684 -134.263) rotate(63)"/>
<use xlink:href="#Repeat%20group%201_inner" transform="translate(809.992 -87.7587) rotate(72)"/>
<use xlink:href="#Repeat%20group%201_inner" transform="translate(899.815 -26.4481) rotate(81)"/>
<use xlink:href="#Repeat%20group%201_inner" transform="translate(978.94 48.159) rotate(90)"/>
<use xlink:href="#Repeat%20group%201_inner" transform="translate(1045.42 134.226) rotate(99)"/>
<use xlink:href="#Repeat%20group%201_inner" transform="translate(1097.62 229.632) rotate(108)"/>
<use xlink:href="#Repeat%20group%201_inner" transform="translate(1134.25 332.03) rotate(117)"/>
<use xlink:href="#Repeat%20group%201_inner" transform="translate(1154.41 438.898) rotate(126)"/>
<use xlink:href="#Repeat%20group%201_inner" transform="translate(1157.61 547.603) rotate(135)"/>
<use xlink:href="#Repeat%20group%201_inner" transform="translate(1143.76 655.47) rotate(144)"/>
<use xlink:href="#Repeat%20group%201_inner" transform="translate(1113.2 759.843) rotate(153)"/>
<use xlink:href="#Repeat%20group%201_inner" transform="translate(1066.7 858.151) rotate(162)"/>
<use xlink:href="#Repeat%20group%201_inner" transform="translate(1005.39 947.973) rotate(171)"/>
<use xlink:href="#Repeat%20group%201_inner" transform="translate(930.781 1027.1) rotate(-180)"/>
<use xlink:href="#Repeat%20group%201_inner" transform="translate(844.715 1093.58) rotate(-171)"/>
<use xlink:href="#Repeat%20group%201_inner" transform="translate(749.308 1145.78) rotate(-162)"/>
<use xlink:href="#Repeat%20group%201_inner" transform="translate(646.91 1182.41) rotate(-153)"/>
<use xlink:href="#Repeat%20group%201_inner" transform="translate(540.043 1202.57) rotate(-144)"/>
<use xlink:href="#Repeat%20group%201_inner" transform="translate(431.337 1205.76) rotate(-135)"/>
<use xlink:href="#Repeat%20group%201_inner" transform="translate(323.47 1191.92) rotate(-126)"/>
<use xlink:href="#Repeat%20group%201_inner" transform="translate(219.097 1161.36) rotate(-117)"/>
<use xlink:href="#Repeat%20group%201_inner" transform="translate(120.79 1114.86) rotate(-108)"/>
<use xlink:href="#Repeat%20group%201_inner" transform="translate(30.9668 1053.55) rotate(-99)"/>
<use xlink:href="#Repeat%20group%201_inner" transform="translate(-48.159 978.94) rotate(-90)"/>
<use xlink:href="#Repeat%20group%201_inner" transform="translate(-114.64 892.874) rotate(-81)"/>
<use xlink:href="#Repeat%20group%201_inner" transform="translate(-166.838 797.467) rotate(-72)"/>
<use xlink:href="#Repeat%20group%201_inner" transform="translate(-203.468 695.069) rotate(-63)"/>
<use xlink:href="#Repeat%20group%201_inner" transform="translate(-223.63 588.201) rotate(-54)"/>
<use xlink:href="#Repeat%20group%201_inner" transform="translate(-226.825 479.496) rotate(-45)"/>
<use xlink:href="#Repeat%20group%201_inner" transform="translate(-212.975 371.629) rotate(-36)"/>
<use xlink:href="#Repeat%20group%201_inner" transform="translate(-182.422 267.256) rotate(-27)"/>
<use xlink:href="#Repeat%20group%201_inner" transform="translate(-135.918 168.948) rotate(-18)"/>
<use xlink:href="#Repeat%20group%201_inner" transform="translate(-74.6071 79.1257) rotate(-8.99999)"/>
<g id="Repeat group 2_inner" data-figma-trr="r40u10-0f">
<path d="M386.689 185.446L400.999 245.101" stroke="white"/>
<path d="M386.689 185.446L400.999 245.101" stroke="url(#paint1_linear_1_2)"/>
</g>
<use xlink:href="#Repeat%20group%202_inner" transform="matrix(0.980186 0.161033 -0.152317 0.99519 87.4426 -72.4732)"/>
<use xlink:href="#Repeat%20group%202_inner" transform="matrix(0.936237 0.3181 -0.300883 0.965876 184.192 -130.517)"/>
<use xlink:href="#Repeat%20group%202_inner" transform="matrix(0.869235 0.467335 -0.442041 0.912778 287.865 -172.701)"/>
<use xlink:href="#Repeat%20group%202_inner" transform="matrix(0.780829 0.605063 -0.572314 0.837205 395.909 -197.988)"/>
<use xlink:href="#Repeat%20group%202_inner" transform="matrix(0.673196 0.727892 -0.688495 0.741017 505.664 -205.755)"/>
<use xlink:href="#Repeat%20group%202_inner" transform="matrix(0.548987 0.832798 -0.787723 0.626583 614.427 -195.81)"/>
<use xlink:href="#Repeat%20group%202_inner" transform="matrix(0.411261 0.917197 -0.867554 0.49672 719.521 -168.399)"/>
<use xlink:href="#Repeat%20group%202_inner" transform="matrix(0.263407 0.979012 -0.926024 0.354627 818.357 -124.196)"/>
<use xlink:href="#Repeat%20group%202_inner" transform="matrix(0.109068 1.01672 -0.961692 0.203801 908.502 -64.289)"/>
<use xlink:href="#Repeat%20group%202_inner" transform="matrix(-0.0479568 1.02939 -0.973679 0.0479567 987.736 9.84556)"/>
<use xlink:href="#Repeat%20group%202_inner" transform="matrix(-0.203801 1.01672 -0.961692 -0.109068 1054.11 96.3829)"/>
<use xlink:href="#Repeat%20group%202_inner" transform="matrix(-0.354627 0.979012 -0.926024 -0.263407 1105.98 193.192)"/>
<use xlink:href="#Repeat%20group%202_inner" transform="matrix(-0.49672 0.917197 -0.867554 -0.411261 1142.09 297.89)"/>
<use xlink:href="#Repeat%20group%202_inner" transform="matrix(-0.626583 0.832798 -0.787723 -0.548987 1161.53 407.897)"/>
<use xlink:href="#Repeat%20group%202_inner" transform="matrix(-0.741017 0.727892 -0.688495 -0.673196 1163.83 520.506)"/>
<use xlink:href="#Repeat%20group%202_inner" transform="matrix(-0.837205 0.605063 -0.572314 -0.780829 1148.93 632.943)"/>
<use xlink:href="#Repeat%20group%202_inner" transform="matrix(-0.912779 0.467335 -0.442041 -0.869235 1117.2 742.441)"/>
<use xlink:href="#Repeat%20group%202_inner" transform="matrix(-0.965876 0.3181 -0.300883 -0.936237 1069.42 846.302)"/>
<use xlink:href="#Repeat%20group%202_inner" transform="matrix(-0.99519 0.161033 -0.152317 -0.980186 1006.76 941.97)"/>
<use xlink:href="#Repeat%20group%202_inner" transform="translate(930.781 1027.09) rotate(-180)"/>
<use xlink:href="#Repeat%20group%202_inner" transform="matrix(-0.980186 -0.161033 0.152317 -0.99519 843.339 1099.56)"/>
<use xlink:href="#Repeat%20group%202_inner" transform="matrix(-0.936237 -0.3181 0.300883 -0.965876 746.59 1157.6)"/>
<use xlink:href="#Repeat%20group%202_inner" transform="matrix(-0.869235 -0.467335 0.442041 -0.912778 642.917 1199.79)"/>
<use xlink:href="#Repeat%20group%202_inner" transform="matrix(-0.780829 -0.605063 0.572314 -0.837205 534.872 1225.08)"/>
<use xlink:href="#Repeat%20group%202_inner" transform="matrix(-0.673196 -0.727892 0.688495 -0.741017 425.117 1232.84)"/>
<use xlink:href="#Repeat%20group%202_inner" transform="matrix(-0.548987 -0.832798 0.787723 -0.626583 316.354 1222.9)"/>
<use xlink:href="#Repeat%20group%202_inner" transform="matrix(-0.41126 -0.917197 0.867555 -0.49672 211.26 1195.49)"/>
<use xlink:href="#Repeat%20group%202_inner" transform="matrix(-0.263407 -0.979012 0.926024 -0.354627 112.424 1151.28)"/>
<use xlink:href="#Repeat%20group%202_inner" transform="matrix(-0.109068 -1.01672 0.961691 -0.203801 22.2791 1091.38)"/>
<use xlink:href="#Repeat%20group%202_inner" transform="matrix(0.0479568 -1.02939 0.973679 -0.0479568 -56.9551 1017.24)"/>
<use xlink:href="#Repeat%20group%202_inner" transform="matrix(0.203801 -1.01672 0.961691 0.109068 -123.327 930.705)"/>
<use xlink:href="#Repeat%20group%202_inner" transform="matrix(0.354627 -0.979012 0.926024 0.263408 -175.203 833.896)"/>
<use xlink:href="#Repeat%20group%202_inner" transform="matrix(0.49672 -0.917197 0.867554 0.411261 -211.306 729.198)"/>
<use xlink:href="#Repeat%20group%202_inner" transform="matrix(0.626583 -0.832797 0.787723 0.548988 -230.746 619.191)"/>
<use xlink:href="#Repeat%20group%202_inner" transform="matrix(0.741018 -0.727892 0.688495 0.673196 -233.044 506.582)"/>
<use xlink:href="#Repeat%20group%202_inner" transform="matrix(0.837206 -0.605063 0.572314 0.780829 -218.145 394.144)"/>
<use xlink:href="#Repeat%20group%202_inner" transform="matrix(0.912778 -0.467335 0.442041 0.869235 -186.415 284.647)"/>
<use xlink:href="#Repeat%20group%202_inner" transform="matrix(0.965876 -0.3181 0.300883 0.936237 -138.636 180.786)"/>
<use xlink:href="#Repeat%20group%202_inner" transform="matrix(0.99519 -0.161033 0.152317 0.980186 -75.9831 85.1183)"/>
<g id="Repeat group 3_inner" data-figma-trr="r40u10-0f">
<path d="M313.351 219.386L340.995 272.87" stroke="white" stroke-width="2"/>
<path d="M313.351 219.386L340.995 272.87" stroke="url(#paint2_linear_1_2)" stroke-width="2"/>
</g>
<use xlink:href="#Repeat%20group%203_inner" transform="matrix(0.980209 0.170188 -0.144121 0.995168 83.2237 -76.7223)"/>
<use xlink:href="#Repeat%20group%203_inner" transform="matrix(0.936282 0.336186 -0.284693 0.965831 175.858 -138.91)"/>
<use xlink:href="#Repeat%20group%203_inner" transform="matrix(0.869301 0.493906 -0.418255 0.912712 275.621 -185.032)"/>
<use xlink:href="#Repeat%20group%203_inner" transform="matrix(0.780915 0.639464 -0.541518 0.837119 380.057 -213.953)"/>
<use xlink:href="#Repeat%20group%203_inner" transform="matrix(0.6733 0.769276 -0.651447 0.740914 486.594 -224.96)"/>
<use xlink:href="#Repeat%20group%203_inner" transform="matrix(0.549106 0.880147 -0.745336 0.626465 592.609 -217.783)"/>
<use xlink:href="#Repeat%20group%203_inner" transform="matrix(0.411391 0.969345 -0.820871 0.49659 695.492 -192.597)"/>
<use xlink:href="#Repeat%20group%203_inner" transform="matrix(0.263547 1.03467 -0.876194 0.354487 792.708 -150.024)"/>
<use xlink:href="#Repeat%20group%203_inner" transform="matrix(0.109213 1.07453 -0.909943 0.203656 881.865 -91.1119)"/>
<use xlink:href="#Repeat%20group%203_inner" transform="matrix(-0.0478105 1.08792 -0.921285 0.0478104 960.767 -17.3108)"/>
<use xlink:href="#Repeat%20group%203_inner" transform="matrix(-0.203656 1.07453 -0.909943 -0.109213 1027.47 69.562)"/>
<use xlink:href="#Repeat%20group%203_inner" transform="matrix(-0.354487 1.03467 -0.876194 -0.263547 1080.34 167.367)"/>
<use xlink:href="#Repeat%20group%203_inner" transform="matrix(-0.49659 0.969345 -0.820871 -0.411391 1118.06 273.697)"/>
<use xlink:href="#Repeat%20group%203_inner" transform="matrix(-0.626465 0.880147 -0.745336 -0.549106 1139.71 385.932)"/>
<use xlink:href="#Repeat%20group%203_inner" transform="matrix(-0.740914 0.769276 -0.651447 -0.6733 1144.76 501.31)"/>
<use xlink:href="#Repeat%20group%203_inner" transform="matrix(-0.837119 0.639464 -0.541518 -0.780915 1133.07 616.989)"/>
<use xlink:href="#Repeat%20group%203_inner" transform="matrix(-0.912712 0.493906 -0.418255 -0.869301 1104.95 730.121)"/>
<use xlink:href="#Repeat%20group%203_inner" transform="matrix(-0.965831 0.336186 -0.284693 -0.936282 1061.08 837.921)"/>
<use xlink:href="#Repeat%20group%203_inner" transform="matrix(-0.995168 0.170188 -0.144121 -0.980209 1002.55 937.733)"/>
<use xlink:href="#Repeat%20group%203_inner" transform="translate(930.781 1027.1) rotate(-180)"/>
<use xlink:href="#Repeat%20group%203_inner" transform="matrix(-0.980209 -0.170189 0.144121 -0.995168 847.557 1103.82)"/>
<use xlink:href="#Repeat%20group%203_inner" transform="matrix(-0.936282 -0.336186 0.284693 -0.965831 754.923 1166.01)"/>
<use xlink:href="#Repeat%20group%203_inner" transform="matrix(-0.869301 -0.493906 0.418255 -0.912712 655.16 1212.13)"/>
<use xlink:href="#Repeat%20group%203_inner" transform="matrix(-0.780915 -0.639464 0.541518 -0.837119 550.724 1241.05)"/>
<use xlink:href="#Repeat%20group%203_inner" transform="matrix(-0.6733 -0.769277 0.651447 -0.740914 444.187 1252.06)"/>
<use xlink:href="#Repeat%20group%203_inner" transform="matrix(-0.549106 -0.880147 0.745336 -0.626465 338.172 1244.88)"/>
<use xlink:href="#Repeat%20group%203_inner" transform="matrix(-0.411391 -0.969345 0.820871 -0.49659 235.289 1219.7)"/>
<use xlink:href="#Repeat%20group%203_inner" transform="matrix(-0.263547 -1.03467 0.876194 -0.354488 138.073 1177.13)"/>
<use xlink:href="#Repeat%20group%203_inner" transform="matrix(-0.109213 -1.07453 0.909943 -0.203656 48.9155 1118.21)"/>
<use xlink:href="#Repeat%20group%203_inner" transform="matrix(0.0478104 -1.08792 0.921285 -0.0478104 -29.9865 1044.41)"/>
<use xlink:href="#Repeat%20group%203_inner" transform="matrix(0.203656 -1.07453 0.909943 0.109213 -96.6907 957.539)"/>
<use xlink:href="#Repeat%20group%203_inner" transform="matrix(0.354488 -1.03467 0.876194 0.263547 -149.555 859.733)"/>
<use xlink:href="#Repeat%20group%203_inner" transform="matrix(0.49659 -0.969345 0.820871 0.411391 -187.277 753.404)"/>
<use xlink:href="#Repeat%20group%203_inner" transform="matrix(0.626465 -0.880147 0.745335 0.549106 -208.928 641.168)"/>
<use xlink:href="#Repeat%20group%203_inner" transform="matrix(0.740914 -0.769276 0.651447 0.6733 -213.975 525.791)"/>
<use xlink:href="#Repeat%20group%203_inner" transform="matrix(0.837119 -0.639464 0.541518 0.780915 -202.294 410.111)"/>
<use xlink:href="#Repeat%20group%203_inner" transform="matrix(0.912712 -0.493906 0.418255 0.869301 -174.172 296.98)"/>
<use xlink:href="#Repeat%20group%203_inner" transform="matrix(0.965831 -0.336186 0.284693 0.936282 -130.302 189.18)"/>
<use xlink:href="#Repeat%20group%203_inner" transform="matrix(0.995168 -0.170188 0.144121 0.980209 -71.7642 89.3676)"/>
<g id="Repeat group 1_2_inner" data-figma-trr="r40u10-0f">
<path d="M438.888 175.175L443.706 236.698" stroke="white" stroke-width="3"/>
<path d="M438.888 175.175L443.706 236.698" stroke="url(#paint3_linear_1_2)" stroke-width="3"/>
</g>
<use xlink:href="#Repeat%20group%201_2_inner" transform="matrix(0.984722 0.15699 -0.155937 0.990655 87.1926 -68.2624)"/>
<use xlink:href="#Repeat%20group%201_2_inner" transform="matrix(0.945196 0.310114 -0.308035 0.956917 183.698 -122.199)"/>
<use xlink:href="#Repeat%20group%201_2_inner" transform="matrix(0.882396 0.455602 -0.452547 0.899617 287.139 -160.48)"/>
<use xlink:href="#Repeat%20group%201_2_inner" transform="matrix(0.79787 0.589872 -0.585917 0.820164 394.969 -182.165)"/>
<use xlink:href="#Repeat%20group%201_2_inner" transform="matrix(0.693696 0.709617 -0.704859 0.720517 504.534 -186.719)"/>
<use xlink:href="#Repeat%20group%201_2_inner" transform="matrix(0.572442 0.811889 -0.806445 0.603128 613.134 -174.03)"/>
<use xlink:href="#Repeat%20group%201_2_inner" transform="matrix(0.437092 0.89417 -0.888174 0.470889 718.097 -144.41)"/>
<use xlink:href="#Repeat%20group%201_2_inner" transform="matrix(0.29098 0.954433 -0.948033 0.327054 816.837 -98.5894)"/>
<use xlink:href="#Repeat%20group%201_2_inner" transform="matrix(0.137703 0.991195 -0.984548 0.175166 906.923 -37.6954)"/>
<use xlink:href="#Repeat%20group%201_2_inner" transform="matrix(-0.0189653 1.00355 -0.996821 0.0189652 986.138 36.7721)"/>
<use xlink:href="#Repeat%20group%201_2_inner" transform="matrix(-0.175166 0.991195 -0.984548 -0.137703 1052.53 122.98)"/>
<use xlink:href="#Repeat%20group%201_2_inner" transform="matrix(-0.327054 0.954433 -0.948033 -0.29098 1104.46 218.804)"/>
<use xlink:href="#Repeat%20group%201_2_inner" transform="matrix(-0.470889 0.89417 -0.888174 -0.437092 1140.66 321.887)"/>
<use xlink:href="#Repeat%20group%201_2_inner" transform="matrix(-0.603128 0.811889 -0.806445 -0.572442 1160.23 429.689)"/>
<use xlink:href="#Repeat%20group%201_2_inner" transform="matrix(-0.720517 0.709617 -0.704859 -0.693696 1162.69 539.556)"/>
<use xlink:href="#Repeat%20group%201_2_inner" transform="matrix(-0.820165 0.589872 -0.585917 -0.79787 1147.99 648.783)"/>
<use xlink:href="#Repeat%20group%201_2_inner" transform="matrix(-0.899617 0.455602 -0.452547 -0.882397 1116.47 754.68)"/>
<use xlink:href="#Repeat%20group%201_2_inner" transform="matrix(-0.956917 0.310114 -0.308034 -0.945196 1068.92 854.639)"/>
<use xlink:href="#Repeat%20group%201_2_inner" transform="matrix(-0.990655 0.15699 -0.155937 -0.984722 1006.51 946.2)"/>
<use xlink:href="#Repeat%20group%201_2_inner" transform="translate(930.78 1027.11) rotate(-180)"/>
<use xlink:href="#Repeat%20group%201_2_inner" transform="matrix(-0.984722 -0.15699 0.155937 -0.990655 843.587 1095.37)"/>
<use xlink:href="#Repeat%20group%201_2_inner" transform="matrix(-0.945196 -0.310114 0.308035 -0.956917 747.082 1149.31)"/>
<use xlink:href="#Repeat%20group%201_2_inner" transform="matrix(-0.882396 -0.455602 0.452547 -0.899617 643.641 1187.59)"/>
<use xlink:href="#Repeat%20group%201_2_inner" transform="matrix(-0.797869 -0.589872 0.585917 -0.820164 535.811 1209.27)"/>
<use xlink:href="#Repeat%20group%201_2_inner" transform="matrix(-0.693696 -0.709617 0.704859 -0.720517 426.246 1213.83)"/>
<use xlink:href="#Repeat%20group%201_2_inner" transform="matrix(-0.572442 -0.811889 0.806445 -0.603128 317.646 1201.14)"/>
<use xlink:href="#Repeat%20group%201_2_inner" transform="matrix(-0.437092 -0.89417 0.888174 -0.470888 212.683 1171.52)"/>
<use xlink:href="#Repeat%20group%201_2_inner" transform="matrix(-0.29098 -0.954433 0.948033 -0.327054 113.943 1125.7)"/>
<use xlink:href="#Repeat%20group%201_2_inner" transform="matrix(-0.137703 -0.991195 0.984548 -0.175166 23.8568 1064.8)"/>
<use xlink:href="#Repeat%20group%201_2_inner" transform="matrix(0.0189652 -1.00355 0.996821 -0.0189652 -55.3575 990.336)"/>
<use xlink:href="#Repeat%20group%201_2_inner" transform="matrix(0.175166 -0.991195 0.984548 0.137703 -121.749 904.128)"/>
<use xlink:href="#Repeat%20group%201_2_inner" transform="matrix(0.327054 -0.954433 0.948033 0.29098 -173.684 808.303)"/>
<use xlink:href="#Repeat%20group%201_2_inner" transform="matrix(0.470889 -0.89417 0.888174 0.437093 -209.882 705.221)"/>
<use xlink:href="#Repeat%20group%201_2_inner" transform="matrix(0.603129 -0.811889 0.806445 0.572442 -229.453 597.419)"/>
<use xlink:href="#Repeat%20group%201_2_inner" transform="matrix(0.720517 -0.709617 0.704859 0.693697 -231.915 487.552)"/>
<use xlink:href="#Repeat%20group%201_2_inner" transform="matrix(0.820165 -0.589872 0.585916 0.79787 -217.206 378.325)"/>
<use xlink:href="#Repeat%20group%201_2_inner" transform="matrix(0.899617 -0.455602 0.452547 0.882396 -185.69 272.428)"/>
<use xlink:href="#Repeat%20group%201_2_inner" transform="matrix(0.956917 -0.310114 0.308035 0.945196 -138.142 172.469)"/>
<use xlink:href="#Repeat%20group%201_2_inner" transform="matrix(0.990655 -0.15699 0.155937 0.984722 -75.7331 80.9078)"/>
<g id="Repeat group 2_2_inner" data-figma-trr="r40u10-0f">
<path d="M361.389 194.366L380.298 252.4" stroke="white" stroke-width="4"/>
<path d="M361.389 194.366L380.298 252.4" stroke="url(#paint4_linear_1_2)" stroke-width="4"/>
</g>
<use xlink:href="#Repeat%20group%202_2_inner" transform="matrix(0.978192 0.162881 -0.150797 0.997185 87.5916 -74.3574)"/>
<use xlink:href="#Repeat%20group%202_2_inner" transform="matrix(0.932297 0.321751 -0.297881 0.969816 184.486 -134.239)"/>
<use xlink:href="#Repeat%20group%202_2_inner" transform="matrix(0.863446 0.472699 -0.437629 0.918567 288.297 -178.169)"/>
<use xlink:href="#Repeat%20group%202_2_inner" transform="matrix(0.773334 0.612007 -0.566602 0.8447 396.468 -205.067)"/>
<use xlink:href="#Repeat%20group%202_2_inner" transform="matrix(0.66418 0.736246 -0.681624 0.750033 506.337 -214.27)"/>
<use xlink:href="#Repeat%20group%202_2_inner" transform="matrix(0.538672 0.842356 -0.779861 0.636898 615.197 -205.551)"/>
<use xlink:href="#Repeat%20group%202_2_inner" transform="matrix(0.3999 0.927724 -0.858896 0.508081 720.369 -179.126)"/>
<use xlink:href="#Repeat%20group%202_2_inner" transform="matrix(0.251281 0.990249 -0.916782 0.366753 819.262 -135.645)"/>
<use xlink:href="#Repeat%20group%202_2_inner" transform="matrix(0.0964748 1.02839 -0.952094 0.216394 909.442 -76.1784)"/>
<use xlink:href="#Repeat%20group%202_2_inner" transform="matrix(-0.0607071 1.04121 -0.963962 0.060707 988.687 -2.19068)"/>
<use xlink:href="#Repeat%20group%202_2_inner" transform="matrix(-0.216394 1.02839 -0.952094 -0.0964748 1055.05 84.4964)"/>
<use xlink:href="#Repeat%20group%202_2_inner" transform="matrix(-0.366753 0.990249 -0.916782 -0.251281 1106.89 181.748)"/>
<use xlink:href="#Repeat%20group%202_2_inner" transform="matrix(-0.508081 0.927724 -0.858896 -0.3999 1142.93 287.17)"/>
<use xlink:href="#Repeat%20group%202_2_inner" transform="matrix(-0.636898 0.842356 -0.779861 -0.538672 1162.3 398.167)"/>
<use xlink:href="#Repeat%20group%202_2_inner" transform="matrix(-0.750033 0.736246 -0.681624 -0.66418 1164.5 512.004)"/>
<use xlink:href="#Repeat%20group%202_2_inner" transform="matrix(-0.8447 0.612007 -0.566602 -0.773334 1149.48 625.88)"/>
<use xlink:href="#Repeat%20group%202_2_inner" transform="matrix(-0.918567 0.472699 -0.437629 -0.863446 1117.63 736.99)"/>
<use xlink:href="#Repeat%20group%202_2_inner" transform="matrix(-0.969816 0.321751 -0.29788 -0.932297 1069.71 842.598)"/>
<use xlink:href="#Repeat%20group%202_2_inner" transform="matrix(-0.997185 0.162881 -0.150797 -0.978192 1006.91 940.104)"/>
<use xlink:href="#Repeat%20group%202_2_inner" transform="translate(930.779 1027.11) rotate(-180)"/>
<use xlink:href="#Repeat%20group%202_2_inner" transform="matrix(-0.978192 -0.162881 0.150797 -0.997185 843.187 1101.46)"/>
<use xlink:href="#Repeat%20group%202_2_inner" transform="matrix(-0.932297 -0.321751 0.29788 -0.969816 746.293 1161.34)"/>
<use xlink:href="#Repeat%20group%202_2_inner" transform="matrix(-0.863446 -0.472699 0.437629 -0.918567 642.482 1205.28)"/>
<use xlink:href="#Repeat%20group%202_2_inner" transform="matrix(-0.773334 -0.612007 0.566602 -0.8447 534.311 1232.17)"/>
<use xlink:href="#Repeat%20group%202_2_inner" transform="matrix(-0.66418 -0.736246 0.681624 -0.750033 424.442 1241.38)"/>
<use xlink:href="#Repeat%20group%202_2_inner" transform="matrix(-0.538672 -0.842356 0.779861 -0.636898 315.581 1232.66)"/>
<use xlink:href="#Repeat%20group%202_2_inner" transform="matrix(-0.3999 -0.927724 0.858896 -0.508081 210.41 1206.23)"/>
<use xlink:href="#Repeat%20group%202_2_inner" transform="matrix(-0.251281 -0.990248 0.916782 -0.366753 111.517 1162.75)"/>
<use xlink:href="#Repeat%20group%202_2_inner" transform="matrix(-0.0964749 -1.02839 0.952094 -0.216394 21.3371 1103.28)"/>
<use xlink:href="#Repeat%20group%202_2_inner" transform="matrix(0.060707 -1.04121 0.963962 -0.060707 -57.9085 1029.3)"/>
<use xlink:href="#Repeat%20group%202_2_inner" transform="matrix(0.216394 -1.02839 0.952094 0.0964749 -124.269 942.61)"/>
<use xlink:href="#Repeat%20group%202_2_inner" transform="matrix(0.366753 -0.990248 0.916782 0.251281 -176.11 845.358)"/>
<use xlink:href="#Repeat%20group%202_2_inner" transform="matrix(0.508081 -0.927724 0.858896 0.3999 -212.155 739.936)"/>
<use xlink:href="#Repeat%20group%202_2_inner" transform="matrix(0.636898 -0.842356 0.779861 0.538672 -231.517 628.94)"/>
<use xlink:href="#Repeat%20group%202_2_inner" transform="matrix(0.750033 -0.736246 0.681624 0.664181 -233.718 515.102)"/>
<use xlink:href="#Repeat%20group%202_2_inner" transform="matrix(0.8447 -0.612007 0.566602 0.773335 -218.705 401.226)"/>
<use xlink:href="#Repeat%20group%202_2_inner" transform="matrix(0.918567 -0.472699 0.437629 0.863446 -186.848 290.117)"/>
<use xlink:href="#Repeat%20group%202_2_inner" transform="matrix(0.969816 -0.321751 0.29788 0.932297 -138.93 184.509)"/>
<use xlink:href="#Repeat%20group%202_2_inner" transform="matrix(0.997185 -0.162881 0.150797 0.978192 -76.1321 87.0028)"/>
<g id="Repeat group 3_2_inner" data-figma-trr="r40u10-0f">
<path d="M290.978 235.311L322.689 285.901" stroke="white" stroke-width="2"/>
<path d="M290.978 235.311L322.689 285.901" stroke="url(#paint5_linear_1_2)" stroke-width="2"/>
</g>
<use xlink:href="#Repeat%20group%203_2_inner" transform="matrix(0.979697 0.171755 -0.142853 0.99568 82.8116 -77.7143)"/>
<use xlink:href="#Repeat%20group%203_2_inner" transform="matrix(0.93527 0.33928 -0.282188 0.966843 175.043 -140.87)"/>
<use xlink:href="#Repeat%20group%203_2_inner" transform="matrix(0.867814 0.498451 -0.414575 0.914199 274.425 -187.911)"/>
<use xlink:href="#Repeat%20group%203_2_inner" transform="matrix(0.778989 0.645349 -0.536753 0.839045 378.508 -217.68)"/>
<use xlink:href="#Repeat%20group%203_2_inner" transform="matrix(0.670983 0.776356 -0.645715 0.743231 484.731 -229.443)"/>
<use xlink:href="#Repeat%20group%203_2_inner" transform="matrix(0.546455 0.888247 -0.738777 0.629115 590.477 -222.911)"/>
<use xlink:href="#Repeat%20group%203_2_inner" transform="matrix(0.408472 0.978266 -0.813648 0.499509 693.143 -198.246)"/>
<use xlink:href="#Repeat%20group%203_2_inner" transform="matrix(0.260431 1.0442 -0.868485 0.357603 790.202 -156.053)"/>
<use xlink:href="#Repeat%20group%203_2_inner" transform="matrix(0.105977 1.08442 -0.901936 0.206892 879.262 -97.372)"/>
<use xlink:href="#Repeat%20group%203_2_inner" transform="matrix(-0.0510868 1.09793 -0.913179 0.0510868 958.132 -23.6483)"/>
<use xlink:href="#Repeat%20group%203_2_inner" transform="matrix(-0.206892 1.08442 -0.901936 -0.105977 1024.87 63.3031)"/>
<use xlink:href="#Repeat%20group%203_2_inner" transform="matrix(-0.357603 1.0442 -0.868485 -0.260431 1077.83 161.341)"/>
<use xlink:href="#Repeat%20group%203_2_inner" transform="matrix(-0.499509 0.978266 -0.813648 -0.408472 1115.71 268.052)"/>
<use xlink:href="#Repeat%20group%203_2_inner" transform="matrix(-0.629115 0.888247 -0.738777 -0.546455 1137.58 380.808)"/>
<use xlink:href="#Repeat%20group%203_2_inner" transform="matrix(-0.743231 0.776356 -0.645715 -0.670983 1142.89 496.832)"/>
<use xlink:href="#Repeat%20group%203_2_inner" transform="matrix(-0.839045 0.645349 -0.536753 -0.778989 1131.52 613.269)"/>
<use xlink:href="#Repeat%20group%203_2_inner" transform="matrix(-0.9142 0.498451 -0.414574 -0.867814 1103.75 727.249)"/>
<use xlink:href="#Repeat%20group%203_2_inner" transform="matrix(-0.966843 0.33928 -0.282188 -0.93527 1060.27 835.969)"/>
<use xlink:href="#Repeat%20group%203_2_inner" transform="matrix(-0.99568 0.171755 -0.142853 -0.979697 1002.13 936.749)"/>
<use xlink:href="#Repeat%20group%203_2_inner" transform="translate(930.779 1027.11) rotate(-180)"/>
<use xlink:href="#Repeat%20group%203_2_inner" transform="matrix(-0.979697 -0.171755 0.142853 -0.99568 847.967 1104.82)"/>
<use xlink:href="#Repeat%20group%203_2_inner" transform="matrix(-0.93527 -0.33928 0.282188 -0.966843 755.735 1167.98)"/>
<use xlink:href="#Repeat%20group%203_2_inner" transform="matrix(-0.867814 -0.498451 0.414575 -0.914199 656.354 1215.02)"/>
<use xlink:href="#Repeat%20group%203_2_inner" transform="matrix(-0.778989 -0.645349 0.536753 -0.839045 552.271 1244.79)"/>
<use xlink:href="#Repeat%20group%203_2_inner" transform="matrix(-0.670983 -0.776356 0.645715 -0.74323 446.048 1256.55)"/>
<use xlink:href="#Repeat%20group%203_2_inner" transform="matrix(-0.546455 -0.888247 0.738777 -0.629115 340.302 1250.02)"/>
<use xlink:href="#Repeat%20group%203_2_inner" transform="matrix(-0.408472 -0.978266 0.813649 -0.499509 237.635 1225.35)"/>
<use xlink:href="#Repeat%20group%203_2_inner" transform="matrix(-0.260431 -1.0442 0.868485 -0.357604 140.577 1183.16)"/>
<use xlink:href="#Repeat%20group%203_2_inner" transform="matrix(-0.105977 -1.08442 0.901936 -0.206892 51.5168 1124.48)"/>
<use xlink:href="#Repeat%20group%203_2_inner" transform="matrix(0.0510868 -1.09793 0.913179 -0.0510868 -27.3527 1050.76)"/>
<use xlink:href="#Repeat%20group%203_2_inner" transform="matrix(0.206892 -1.08442 0.901936 0.105977 -94.0892 963.805)"/>
<use xlink:href="#Repeat%20group%203_2_inner" transform="matrix(0.357604 -1.0442 0.868485 0.260431 -147.049 865.767)"/>
<use xlink:href="#Repeat%20group%203_2_inner" transform="matrix(0.499509 -0.978266 0.813648 0.408472 -184.929 759.056)"/>
<use xlink:href="#Repeat%20group%203_2_inner" transform="matrix(0.629116 -0.888247 0.738777 0.546455 -206.796 646.3)"/>
<use xlink:href="#Repeat%20group%203_2_inner" transform="matrix(0.743231 -0.776356 0.645715 0.670983 -212.112 530.276)"/>
<use xlink:href="#Repeat%20group%203_2_inner" transform="matrix(0.839045 -0.645349 0.536753 0.778989 -200.745 413.84)"/>
<use xlink:href="#Repeat%20group%203_2_inner" transform="matrix(0.914199 -0.498451 0.414575 0.867814 -172.976 299.859)"/>
<use xlink:href="#Repeat%20group%203_2_inner" transform="matrix(0.966843 -0.33928 0.282188 0.93527 -129.488 191.14)"/>
<use xlink:href="#Repeat%20group%203_2_inner" transform="matrix(0.99568 -0.171755 0.142853 0.979697 -71.3521 90.3596)"/>
<defs>
<linearGradient id="paint0_linear_1_2" x1="465.891" y1="173.878" x2="465.891" y2="235.637" gradientUnits="userSpaceOnUse">
<stop stop-color="#EBC465"/>
<stop offset="1" stop-color="#F2C852"/>
</linearGradient>
<linearGradient id="paint1_linear_1_2" x1="387.168" y1="185.303" x2="404.732" y2="243.983" gradientUnits="userSpaceOnUse">
<stop stop-color="#EBC465"/>
<stop offset="1" stop-color="#F2C852"/>
</linearGradient>
<linearGradient id="paint2_linear_1_2" x1="313.772" y1="219.115" x2="346.253" y2="269.479" gradientUnits="userSpaceOnUse">
<stop stop-color="#EBC465"/>
<stop offset="1" stop-color="#F2C852"/>
</linearGradient>
<linearGradient id="paint3_linear_1_2" x1="439.386" y1="175.126" x2="445.387" y2="236.534" gradientUnits="userSpaceOnUse">
<stop stop-color="#EBC465"/>
<stop offset="1" stop-color="#F2C852"/>
</linearGradient>
<linearGradient id="paint4_linear_1_2" x1="361.854" y1="194.177" x2="384.785" y2="250.576" gradientUnits="userSpaceOnUse">
<stop stop-color="#EBC465"/>
<stop offset="1" stop-color="#F2C852"/>
</linearGradient>
<linearGradient id="paint5_linear_1_2" x1="291.375" y1="235.001" x2="327.962" y2="281.777" gradientUnits="userSpaceOnUse">
<stop stop-color="#EBC465"/>
<stop offset="1" stop-color="#F2C852"/>
</linearGradient>
</defs>
</svg>
