<svg width="112" height="36" viewBox="0 0 112 36" fill="none" xmlns="http://www.w3.org/2000/svg">
<path d="M4.00591 8.65347L4 23.1578C4 23.7356 4.73733 24.025 5.16809 23.6161L20.4893 9.10624C20.9201 8.69828 20.6145 8 20.0053 8L4.69001 8.0056C4.31248 8.0056 4.00591 8.29593 4.00591 8.65347Z" fill="white"/>
<path d="M13.6483 18.958L5.04781 27.0965C4.59832 27.5213 4.91671 28.2494 5.55152 28.2494H22.7515C23.3864 28.2494 23.7047 27.5222 23.2552 27.0965L14.6547 18.958C14.3768 18.6947 13.9263 18.6947 13.6483 18.958Z" fill="white"/>
<path d="M50.529 19.681C50.531 22.2663 48.8771 25.87 43.9469 25.875C39.0167 25.88 37.3556 22.2792 37.3525 19.694C37.3495 17.1097 39.0045 13.505 43.9336 13.5C48.8638 13.495 50.5249 17.0968 50.528 19.681H50.529ZM47.9613 19.684C47.9593 17.9314 46.8668 15.5756 43.9367 15.5786C41.0065 15.5815 39.9182 17.9383 39.9202 19.691C39.9223 21.4436 41.0147 23.7994 43.9449 23.7964C46.874 23.7935 47.9623 21.4357 47.9613 19.683V19.684Z" fill="white"/>
<path d="M64.7981 21.0718L64.803 25.864L62.1337 25.8667L62.1288 21.0746C62.1268 19.407 62.1238 16.8009 59.6976 16.8037C57.9531 16.8055 56.3247 18.0162 55.3979 19.2986L55.4048 25.8722L52.7355 25.875L52.7246 14.8383L55.3939 14.8355L55.3959 17.0169C56.4438 15.8063 58.3828 14.6268 60.3128 14.625C63.1548 14.6222 64.7931 16.2797 64.7981 21.0718Z" fill="white"/>
<path d="M74.2786 18.5606L78.7068 25.8634L75.7706 25.8663L72.3729 20.2641L69.5809 22.7605L69.5838 25.8721L67.0143 25.875L66.999 10.1279L69.5685 10.125L69.5771 19.7571L75.7113 14.2718L79.0775 14.2689L74.2776 18.5606H74.2786Z" fill="white"/>
<path d="M33.2147 18.5606L38.0456 25.8634L34.8424 25.8663L31.1359 20.2641L28.09 22.7605L28.0932 25.8721L25.2901 25.875L25.2734 10.1279L28.0765 10.125L28.0859 19.7571L34.7778 14.2718L38.4499 14.2689L33.2137 18.5606H33.2147Z" fill="white"/>
<path d="M91.1566 19.681C91.1584 22.2663 89.6423 25.87 85.123 25.875C80.6036 25.88 79.0809 22.2792 79.0781 19.694C79.0753 17.1097 80.5924 13.505 85.1108 13.5C89.6301 13.495 91.1528 17.0968 91.1556 19.681H91.1566ZM88.8028 19.684C88.801 17.9314 87.7996 15.5756 85.1136 15.5786C82.4276 15.5815 81.43 17.9383 81.4319 19.691C81.4337 21.4436 82.4351 23.7994 85.1211 23.7964C87.8061 23.7935 88.8038 21.4357 88.8028 19.683V19.684Z" fill="white"/>
<path d="M92.8035 25.875C92.6551 25.875 92.5267 25.7658 92.4178 25.5452C92.3089 25.3246 92.2545 25.0556 92.2539 24.7382C92.2539 24.4208 92.3078 24.1551 92.4167 23.9435C92.5256 23.7319 92.654 23.625 92.8024 23.625C92.9502 23.625 93.0791 23.7308 93.188 23.9413C93.2969 24.1529 93.3514 24.4174 93.3519 24.7348C93.3519 25.0522 93.2975 25.3223 93.1891 25.543C93.0802 25.7636 92.9518 25.8739 92.8035 25.875Z" fill="white"/>
<path d="M99.9318 25.875C99.0305 25.875 98.25 25.746 97.5903 25.4842C96.9296 25.2234 96.4244 24.8525 96.0748 24.3715C95.7251 23.8905 95.5498 23.3391 95.5488 22.7164C95.5488 22.1506 95.6915 21.6371 95.9777 21.1768C96.265 20.7166 96.7414 20.3411 97.409 20.0506C98.0766 19.76 98.9691 19.6138 100.087 19.6129L104.561 19.6084V20.4359L100.111 20.4395C98.8532 20.4404 97.9716 20.6534 97.4675 21.0785C96.9633 21.5035 96.7117 22.0342 96.7117 22.6713C96.7117 23.3788 97.0079 23.9447 97.5992 24.3688C98.1895 24.793 99.0206 25.0041 100.092 25.0032C101.117 25.0023 101.983 24.7893 102.689 24.3643C103.396 23.9392 103.92 23.3229 104.26 22.5161L104.587 23.2371C104.262 24.0439 103.707 24.6847 102.923 25.1594C102.14 25.634 101.141 25.8723 99.9299 25.8732L99.9318 25.875ZM104.312 25.7866L104.309 23.2606L104.262 22.8789L104.258 18.7185C104.257 17.6861 103.949 16.901 103.335 16.3631C102.721 15.8262 101.824 15.5581 100.644 15.559C99.8051 15.559 99.0245 15.6917 98.3035 15.9534C97.5814 16.216 96.9643 16.5526 96.4522 16.9633L95.8688 16.1998C96.474 15.7043 97.203 15.3181 98.0578 15.041C98.9116 14.764 99.8051 14.6259 100.737 14.625C102.244 14.6241 103.401 14.9697 104.21 15.6619C105.018 16.355 105.423 17.3874 105.424 18.76L105.431 25.7857H104.313L104.312 25.7866Z" fill="white"/>
<path d="M107.627 11.958C107.323 11.958 107.065 11.8675 106.851 11.6866C106.637 11.5057 106.529 11.295 106.528 11.0535C106.528 10.7976 106.634 10.5782 106.848 10.3973C107.063 10.2164 107.321 10.125 107.625 10.125C107.946 10.125 108.211 10.2116 108.416 10.3848C108.621 10.558 108.724 10.7735 108.724 11.0295C108.724 11.2864 108.622 11.5048 108.417 11.6857C108.212 11.8666 107.949 11.958 107.626 11.958H107.627ZM106.975 25.875L106.961 14.0613H108.301L108.314 25.874H106.975V25.875Z" fill="white"/>
</svg>
