<svg width="105" height="6" viewBox="0 0 105 6" fill="none" xmlns="http://www.w3.org/2000/svg">
<path d="M39.9501 6.42893e-05C40.585 -0.00207093 41.1802 0.0489733 41.932 0.113593C41.9324 0.113593 41.9328 0.113593 41.9332 0.113593C42.0406 0.122825 42.1513 0.132494 42.2656 0.142158C43.1866 0.219985 44.3833 0.311321 46.1878 0.363723C48.1816 0.421633 49.7645 0.631294 50.7311 0.832486C50.9114 0.87001 51.098 0.890629 51.5687 0.909393C51.8773 0.921699 52.2946 0.932808 52.8969 0.948945C53.2172 0.957528 53.59 0.967406 54.0264 0.979707C55.4711 1.02043 57.7352 1.00775 59.8215 0.995822C61.0877 0.988582 62.2887 0.981663 63.2009 0.987399C64.5349 0.995789 65.8221 1.03343 67.2215 1.07456C68.503 1.11223 69.8788 1.15289 71.4705 1.176C72.6918 1.19375 73.8784 1.34607 75.0842 1.51622C75.2377 1.53788 75.3918 1.55977 75.546 1.58178C76.6101 1.7336 77.6979 1.88903 78.8741 1.97803C80.9708 2.13666 82.644 2.07111 84.4966 1.99854C85.2211 1.97015 85.9732 1.94064 86.7889 1.9231C88.0788 1.89535 89.9332 1.90095 91.7953 1.90881C91.9539 1.90948 92.1127 1.90996 92.2711 1.91065C92.2719 1.91065 92.2727 1.91065 92.2735 1.91065C93.978 1.91803 95.6508 1.92528 96.8782 1.90918C98.8284 1.8836 99.5622 1.82315 100.174 1.77258C100.404 1.75357 100.617 1.73582 100.871 1.72204C101.786 1.67243 103.166 1.68164 104.565 1.69091C104.571 1.69091 104.576 1.69091 104.581 1.69091C104.814 1.69245 105.001 1.86187 105 2.06922C104.999 2.27659 104.81 2.44357 104.577 2.44203C103.836 2.43712 103.113 2.43237 102.465 2.43581C102.432 2.61398 102.257 2.74885 102.048 2.74746C101.525 2.74403 99.9226 2.87826 97.4145 3.09757C97.5863 3.13004 97.7302 3.16165 97.8563 3.19169C98.0043 3.22695 98.1177 3.25727 98.2152 3.28324C98.4184 3.33738 98.5536 3.3731 98.7936 3.39934C99.3494 3.42916 100.223 3.43536 101.142 3.44145C101.375 3.44304 101.562 3.61212 101.561 3.81939C101.56 4.02671 101.371 4.19366 101.138 4.1922C101.134 4.1922 101.129 4.1922 101.125 4.1922C100.214 4.18617 99.3126 4.18005 98.7319 4.14826C98.5842 4.14017 98.4569 4.13059 98.3614 4.12189C98.285 4.11493 98.1897 4.10549 98.1367 4.09333C98.1296 4.09171 98.1162 4.08844 98.1002 4.08344C98.1 4.08331 98.0997 4.08319 98.0994 4.08307C98.0905 4.08031 98.0448 4.06631 97.9961 4.03583C97.9863 4.02967 97.9648 4.01592 97.94 3.99371C97.9336 3.992 97.9272 3.99029 97.9208 3.98859C97.8314 3.96486 97.7403 3.94068 97.6416 3.91717C97.2563 3.82539 96.6461 3.70971 95.3753 3.58721C94.2065 3.47454 92.2307 3.42403 89.7653 3.42314C89.9319 3.43867 90.0988 3.45373 90.2656 3.46818C90.6854 3.50452 91.1071 3.53766 91.5289 3.56926C91.6905 3.58133 91.8499 3.59315 92.0124 3.60479C92.2738 3.62359 92.5361 3.64206 92.7982 3.66008C92.9754 3.67229 93.1529 3.68428 93.3302 3.69634C93.3306 3.69634 93.3309 3.69634 93.3314 3.69634C93.5774 3.71309 93.8241 3.72993 94.0728 3.74725C94.1598 3.75369 94.2457 3.75988 94.3311 3.76592C94.6709 3.78997 95.0047 3.81331 95.3889 3.85858C95.4357 3.86607 95.4864 3.87577 95.5243 3.88385C95.5651 3.89236 95.6042 3.90103 95.6413 3.90985C95.674 3.91763 95.7051 3.92555 95.735 3.93292C95.739 3.9339 95.743 3.93487 95.747 3.93585C95.7805 3.94409 95.8124 3.95172 95.8432 3.95892C95.8738 3.96612 95.9034 3.97305 95.9325 3.97906C95.9327 3.97906 95.933 3.97906 95.9333 3.97906C95.9637 3.98523 95.9868 3.98987 96.019 3.99518C96.0595 4.00183 96.0942 4.00695 96.1364 4.01202C96.1771 4.01696 96.2196 4.02136 96.2625 4.02521C96.3054 4.02905 96.3491 4.03241 96.3935 4.03546C96.4379 4.03852 96.483 4.04136 96.5285 4.04388C96.5739 4.04641 96.62 4.04862 96.6663 4.05084C96.7126 4.05307 96.7594 4.0553 96.8065 4.05744C96.9148 4.06239 97.0186 4.10399 97.0949 4.17463C97.1711 4.24527 97.2135 4.33869 97.213 4.43538C97.2125 4.53208 97.169 4.62501 97.0921 4.69466C97.0151 4.76427 96.9108 4.80466 96.8025 4.80819C96.7729 4.80913 96.7433 4.8102 96.7135 4.81112C96.6959 4.81166 96.678 4.81206 96.6603 4.81258C96.6125 4.81398 96.5642 4.81555 96.5157 4.81661C96.4671 4.81767 96.4182 4.81837 96.3687 4.81881C96.319 4.81925 96.2687 4.81939 96.2177 4.81881C96.1667 4.81823 96.1147 4.81698 96.0619 4.81478C96.0103 4.8127 95.9514 4.80907 95.8988 4.80453C95.8604 4.80134 95.813 4.79589 95.7735 4.79098C95.7322 4.78584 95.6916 4.7801 95.6525 4.77413C95.6133 4.76814 95.5753 4.7618 95.5392 4.75582C95.5353 4.75521 95.5314 4.7546 95.5275 4.75399C95.4955 4.7487 95.4646 4.74355 95.4354 4.73897C95.4028 4.73386 95.3719 4.72951 95.3425 4.72579C95.3101 4.72161 95.2905 4.71996 95.2664 4.7181C94.9477 4.70603 94.5537 4.70852 94.1781 4.71077C94.1309 4.71106 94.084 4.71125 94.0375 4.71151C93.7908 4.71327 93.5446 4.71549 93.2985 4.71773C93.1197 4.71936 92.9407 4.72105 92.7614 4.72249C92.4976 4.72464 92.233 4.72635 91.9687 4.72762C91.8045 4.72835 91.6434 4.72883 91.4796 4.72908C91.052 4.72981 90.623 4.72879 90.1935 4.72432C89.7645 4.71984 89.3329 4.71202 88.9009 4.69869C88.4707 4.6854 88.0236 4.66553 87.592 4.63533C87.2746 4.61276 86.9493 4.57341 86.6483 4.53279C86.4865 4.51091 86.3281 4.48871 86.172 4.4665C86.1715 4.46638 86.171 4.46626 86.1704 4.46614C86.0334 4.44664 85.8982 4.42734 85.7639 4.40901C85.476 4.36952 85.1931 4.33431 84.9103 4.30463C84.628 4.27494 84.3468 4.25072 84.0636 4.23212C83.7825 4.21371 83.4966 4.20039 83.2136 4.1922C82.9292 4.18395 82.6499 4.1806 82.3565 4.18085C81.9706 4.18158 81.5874 4.18828 81.1941 4.19623C80.8036 4.20435 80.41 4.21451 80.0153 4.2248C79.8773 4.22841 79.7391 4.23175 79.6007 4.23542C79.6002 4.23542 79.5997 4.23542 79.5991 4.23542C79.3431 4.2422 79.0865 4.24902 78.8297 4.25556C78.4332 4.26564 78.0356 4.27524 77.6365 4.28303C77.2374 4.29077 76.8359 4.29685 76.4324 4.29914C76.0288 4.30123 75.6143 4.29996 75.1979 4.28779C74.8265 4.27727 74.4521 4.26324 74.086 4.24933C73.9894 4.24567 73.8927 4.24201 73.796 4.23835C73.3374 4.22121 72.8933 4.20755 72.4542 4.20502C72.0154 4.20219 71.5769 4.20994 71.1344 4.22626C70.6933 4.24252 70.2466 4.26686 69.7962 4.29621C69.3439 4.3257 68.8975 4.35969 68.442 4.39692C67.9899 4.43401 67.5358 4.47382 67.0761 4.51594C66.8206 4.53927 66.5487 4.5607 66.2919 4.57893C66.0325 4.59734 65.7748 4.61362 65.5204 4.62874C65.4172 4.63489 65.3144 4.64074 65.2124 4.64668C65.0636 4.65535 64.9161 4.66381 64.771 4.67268C64.526 4.68766 64.287 4.70367 64.0548 4.72249C63.8227 4.74129 63.5975 4.76316 63.3799 4.78987C63.1547 4.81763 62.9691 4.84585 62.747 4.88619C62.2063 4.96398 61.8713 4.98787 61.4989 5.01473C61.4256 5.02002 61.3507 5.02565 61.2726 5.03158C60.8262 5.06171 60.3802 5.08418 59.94 5.10116C59.4956 5.11817 59.0581 5.12965 58.615 5.13632C58.1762 5.14296 57.7343 5.14455 57.294 5.14181C56.8545 5.13909 56.4157 5.13191 55.9758 5.12021C55.5363 5.10854 55.0876 5.09197 54.6569 5.07186C54.4079 5.06029 54.1435 5.04485 53.8978 5.02902C53.7206 5.01762 53.546 5.00564 53.3747 4.99386C53.3048 4.98905 53.2353 4.98426 53.1664 4.97958C52.9291 4.96344 52.6984 4.94848 52.4755 4.93709C52.2526 4.92568 52.0369 4.91766 51.8258 4.91476C51.6144 4.91181 51.4075 4.91399 51.2006 4.92135C50.986 4.92923 50.8079 4.93977 50.5801 4.95907C50.4318 4.97181 50.2864 4.98466 50.1415 4.99752C49.9246 5.01678 49.7092 5.03644 49.4923 5.05685C49.2756 5.07724 49.0616 5.09807 48.8466 5.11984C48.7774 5.12684 48.7044 5.13423 48.6351 5.14145C48.4208 5.16375 48.209 5.18672 47.9974 5.21103C47.7862 5.23529 47.577 5.26064 47.3686 5.28757C47.1593 5.3146 46.9535 5.34277 46.7437 5.37326C46.3871 5.42527 46.0457 5.44939 45.7468 5.46555C45.4443 5.48153 45.1616 5.49039 44.8864 5.49888C44.8349 5.50046 44.7833 5.50205 44.7318 5.50364C44.5098 5.51028 44.2915 5.51656 44.0765 5.52415C43.8115 5.53346 43.5513 5.54458 43.2902 5.55784C43.0315 5.57094 42.7701 5.5863 42.5128 5.60435C42.253 5.62262 42.0046 5.64236 41.7369 5.66661C41.4722 5.6904 41.2033 5.72145 40.9086 5.75523C40.6166 5.78877 40.3101 5.82325 39.9998 5.85338C39.6897 5.88362 39.3748 5.90974 39.0621 5.93029C38.7488 5.95094 38.4344 5.96658 38.1244 5.97753C37.8128 5.98857 37.503 5.99504 37.1948 5.99804C36.8873 6.00105 36.5696 6.00053 36.2723 5.99694C35.7909 5.99114 35.3117 5.98294 34.8316 5.97387C34.3541 5.96475 33.8752 5.95459 33.3972 5.94384C32.9201 5.93308 32.4425 5.92185 31.9657 5.91014C31.4886 5.89843 31.0116 5.8864 30.5353 5.87425C30.43 5.87157 30.3246 5.86888 30.2193 5.8662C29.8484 5.85673 29.4775 5.84724 29.1082 5.838C29.1056 5.83788 29.1031 5.83775 29.1006 5.83763C28.6252 5.82587 28.1585 5.81443 27.6871 5.80467C27.514 5.80118 27.3477 5.79789 27.1788 5.79515C27.0096 5.79242 26.8436 5.7902 26.6761 5.78856C26.5083 5.78693 26.3416 5.78602 26.1774 5.78599C26.0114 5.78602 25.8496 5.78687 25.6863 5.78929C25.5367 5.79141 25.3881 5.79522 25.2257 5.79918C25.2109 5.79954 25.1961 5.79991 25.1813 5.80028C25.0036 5.80464 24.8015 5.8074 24.6137 5.8054C24.1162 5.79949 23.6313 5.7967 23.1377 5.79698C22.6438 5.79725 22.151 5.80048 21.6541 5.80504C21.46 5.80679 21.2651 5.80895 21.0701 5.8109C20.7667 5.81392 20.4622 5.81696 20.1568 5.81932C19.6543 5.82324 19.1508 5.82502 18.644 5.82262C18.1391 5.82021 17.631 5.81345 17.1251 5.80174C16.6197 5.79009 16.1098 5.77357 15.6067 5.75267C15.046 5.72928 14.4887 5.70345 13.9288 5.67649C13.3698 5.6495 12.8105 5.62124 12.2537 5.59226C11.6949 5.56324 11.1374 5.53344 10.5798 5.5029C10.0219 5.47235 9.46433 5.44109 8.90636 5.40915C8.57243 5.39003 8.2386 5.37055 7.9046 5.35092C7.72789 5.36854 7.55848 5.38581 7.39551 5.40219C6.19132 5.52322 5.32063 5.61052 4.17194 5.67063C4.06193 5.67974 3.97242 5.69271 3.86352 5.70835C3.84274 5.71134 3.8207 5.71433 3.79823 5.71751C3.65591 5.73766 3.49247 5.75874 3.26511 5.77208C2.81154 5.79867 2.11632 5.79289 1.21793 5.61753C0.990987 5.57323 0.846578 5.37327 0.895491 5.17074C0.929876 5.02868 1.05041 4.92312 1.1975 4.88802C0.925745 4.86392 0.654722 4.83871 0.384397 4.81367C0.276496 4.80364 0.175198 4.75704 0.103215 4.68293C0.0312735 4.6088 -0.00553796 4.51359 0.000675959 4.41706C0.00689191 4.3205 0.0558628 4.22993 0.136861 4.164C0.21783 4.09814 0.324068 4.06246 0.432462 4.06402C0.720013 4.06832 1.00659 4.07267 1.29323 4.07574C1.58011 4.07885 1.86563 4.08066 2.152 4.0816C2.43828 4.08254 2.72447 4.08243 3.01156 4.0816C3.29753 4.08073 3.58407 4.07934 3.87113 4.0772C4.16001 4.07512 4.44344 4.07219 4.7315 4.06915C4.90408 4.06728 5.07874 4.06544 5.2502 4.06329C5.31411 4.06255 5.37647 4.06153 5.43886 4.06072C5.48985 4.06006 5.54111 4.05953 5.59387 4.05889C6.14889 4.05153 6.70922 4.0433 7.26454 4.03436C7.82247 4.02546 8.37985 4.01605 8.93721 4.00616C9.49487 3.99627 10.0521 3.98573 10.6095 3.97503C11.1666 3.96432 11.7235 3.95325 12.2813 3.9417C12.8372 3.93011 13.3953 3.91826 13.952 3.90545C14.3827 3.89555 14.8097 3.88491 15.2374 3.87358C15.4057 3.85421 15.5724 3.83591 15.7368 3.81829C16.2156 3.76699 16.6949 3.69967 17.1672 3.63298C16.3267 3.66614 15.6515 3.71793 15.0086 3.76738C14.9225 3.77401 14.8369 3.78067 14.7515 3.78716C13.8802 3.8534 13.0385 3.90948 11.9064 3.89702C8.68664 3.8616 6.81968 3.83575 5.65635 3.78752C4.49324 3.73929 3.99348 3.6678 3.52706 3.52567C2.868 3.32482 1.59598 3.21058 0.956774 3.20633C0.724576 3.20479 0.537152 3.03534 0.538206 2.82802C0.539327 2.62065 0.72854 2.45367 0.960779 2.45521C1.63572 2.45969 3.01218 2.57581 3.79663 2.81484C4.14602 2.92132 4.5478 2.99001 5.6932 3.0375C6.83873 3.08499 8.68846 3.11041 11.9144 3.1459C13.0058 3.15791 13.8158 3.10451 14.6778 3.03897C14.7623 3.03254 14.8475 3.0258 14.9333 3.01919C14.9339 3.01919 14.9344 3.01919 14.9349 3.01919C15.7268 2.95826 16.5889 2.89184 17.7516 2.86245C20.4313 2.79469 24.036 2.66335 24.8917 2.58925C25.0596 2.57471 25.2219 2.55837 25.3931 2.54127C26.0504 2.47563 26.8438 2.39646 28.6319 2.34388C29.023 2.33238 29.4811 2.3257 29.981 2.32264C30.7311 2.22158 31.4594 2.12783 32.0926 2.07214C32.6392 2.02409 33.1432 1.9357 33.6315 1.83886C33.7721 1.81098 33.9136 1.78183 34.0549 1.7528C34.3956 1.68279 34.7365 1.61282 35.0687 1.5587C35.3335 1.51556 35.6108 1.46373 35.9038 1.40892C36.9713 1.20926 38.2506 0.970021 39.9177 0.966889C41.6848 0.963569 43.1978 1.00675 44.5027 1.04892C43.5444 1.00014 42.8046 0.941693 42.1883 0.889616C42.0721 0.879793 41.9607 0.87025 41.8535 0.861051C41.0961 0.796071 40.5454 0.748831 39.9553 0.750818C37.1366 0.760308 36.0793 0.82397 34.8864 1.0079C34.5724 1.05633 34.2259 1.12085 33.8526 1.19028C33.1066 1.32906 32.2533 1.48773 31.3364 1.57848C30.4824 1.66299 29.5274 1.78776 28.5154 1.9198C28.515 1.9198 28.5146 1.9198 28.5142 1.9198C28.3164 1.9456 28.1164 1.97167 27.9146 1.9978C26.6842 2.15711 25.39 2.3173 24.1302 2.41822C23.9955 2.42902 23.8341 2.4439 23.6488 2.46107C22.5792 2.56016 20.7015 2.73412 18.4085 2.62257C17.9048 2.59807 17.3815 2.54615 16.7843 2.4867C16.6024 2.4686 16.4135 2.44958 16.2163 2.43067C15.365 2.34907 14.3307 2.26237 12.9535 2.21021C11.8169 2.16716 10.4317 2.14651 8.99328 2.12488C8.28477 2.11422 7.56336 2.10315 6.85238 2.08935C4.70475 2.04768 2.73637 1.98158 0.771723 1.9154C0.771322 1.9154 0.770922 1.9154 0.770521 1.9154C0.538422 1.90758 0.356615 1.73297 0.36477 1.52574C0.37301 1.31861 0.567769 1.15689 0.799761 1.16464C2.76557 1.23087 4.72793 1.29707 6.8684 1.3386C7.56857 1.35219 8.28434 1.36314 8.99008 1.37376C10.4355 1.39551 11.8399 1.41637 12.9871 1.45982C14.3877 1.51288 15.441 1.60122 16.304 1.68395C16.5119 1.70387 16.7073 1.72335 16.8928 1.74181C17.4834 1.80056 17.9744 1.84968 18.4521 1.87292C20.6724 1.98093 22.4791 1.81388 23.5526 1.71471C23.743 1.69712 23.9104 1.68182 24.0529 1.6704C25.288 1.57145 26.5623 1.4139 27.7916 1.25474C27.991 1.22892 28.1895 1.20316 28.3864 1.17746C28.3868 1.17734 28.3872 1.17722 28.3876 1.1771C29.3993 1.04508 30.3716 0.918205 31.2415 0.832118C32.1244 0.744737 32.8944 0.600812 33.6147 0.466263C34.0012 0.394066 34.3734 0.324824 34.741 0.268138C36.0065 0.0730033 37.1223 0.00958314 39.9501 6.42893e-05ZM1.61767 4.92427C2.17625 5.01838 2.63137 5.03822 2.97031 5.03194C2.68246 5.01056 2.39531 4.98813 2.10794 4.96492C1.94438 4.95172 1.78101 4.93817 1.61767 4.92427ZM30.0495 3.07303C29.959 3.08524 29.8678 3.0976 29.7763 3.11001C30.0289 3.10413 30.2815 3.09866 30.5337 3.09317C30.8434 3.08643 31.1531 3.08006 31.4626 3.07376C30.9704 3.07129 30.4935 3.07058 30.0495 3.07303ZM39.9217 1.71801C38.3495 1.72096 37.1747 1.94001 36.1153 2.1377C35.8102 2.19463 35.5144 2.24969 35.2217 2.29737C35.1003 2.31714 34.979 2.339 34.8568 2.36219C35.5688 2.37396 36.2232 2.38633 36.759 2.39662C38.3577 2.42732 39.2675 2.4913 40.0671 2.5475C40.2984 2.56376 40.5207 2.57931 40.7476 2.59328C40.9353 2.56807 41.1302 2.54308 41.3272 2.52113C41.6029 2.49012 41.901 2.46036 42.1847 2.43507C42.4695 2.40962 42.7589 2.38686 43.0431 2.36769C43.3297 2.34834 43.6136 2.33221 43.8963 2.31825C44.1622 2.30505 44.4273 2.29389 44.6837 2.28309C44.6984 2.28248 44.7131 2.28187 44.7278 2.28126C44.9988 2.26975 45.2626 2.25875 45.5048 2.24354C45.7515 2.22791 45.9565 2.20949 46.1385 2.18165C46.3658 2.14697 46.5989 2.11369 46.8294 2.08277C47.0602 2.05178 47.2901 2.02295 47.5192 1.99597C47.7488 1.96894 47.9761 1.94369 48.2041 1.9198C48.2778 1.91207 48.3549 1.90412 48.428 1.89673C48.4617 1.89332 48.4954 1.88982 48.5289 1.88647C48.083 1.88388 47.62 1.87985 47.1415 1.87365C46.4501 1.8647 45.7121 1.84017 44.898 1.81323C43.5092 1.76727 41.899 1.7143 39.9217 1.71801ZM55.2885 1.81945C55.0946 1.82141 54.8107 1.82727 54.4446 1.83483C54.358 1.83662 54.2667 1.83875 54.171 1.84069C54.1732 1.84088 54.1756 1.84088 54.1778 1.84106C54.415 1.8602 54.634 1.87688 54.8703 1.89233C55.2917 1.91974 55.701 1.94324 56.1144 1.96338C56.5295 1.98355 56.9434 2.00007 57.3577 2.01318C57.7727 2.02631 58.1889 2.03573 58.6014 2.04138C59.018 2.04701 59.4286 2.0492 59.8431 2.04651C59.9751 2.04566 60.1076 2.04431 60.24 2.04248C59.9444 2.02358 59.6374 2.00799 59.3132 1.99158C59.0542 1.97847 58.7841 1.96475 58.5001 1.94836C58.3914 1.94209 58.2598 1.93249 58.1063 1.92126C57.4981 1.87679 56.5437 1.80681 55.2885 1.81945ZM63.5469 1.83557C63.6431 1.83059 63.7388 1.8261 63.8333 1.82238C64.1025 1.81183 64.3648 1.8058 64.622 1.80114C64.8026 1.7979 64.9812 1.79558 65.1571 1.79309C65.2314 1.79203 65.3055 1.79088 65.379 1.78979C65.5021 1.78797 65.6242 1.78579 65.7455 1.78356C64.8949 1.76094 64.0634 1.7436 63.1968 1.73815C63.1854 1.73808 63.1739 1.73822 63.1624 1.73815C63.2936 1.77131 63.4217 1.80379 63.5469 1.83557Z" fill="#EBC465"/>
</svg>
