<svg width="24" height="24" viewBox="0 0 24 24" fill="none" xmlns="http://www.w3.org/2000/svg">
<g clip-path="url(#clip0_627_9602)">
<path d="M19.9319 4.02136C17.9144 2.00386 15.1274 0.755859 12.0487 0.755859C5.8919 0.755859 0.899902 5.74711 0.899902 11.9046C0.899902 13.9536 1.45265 15.8729 2.4164 17.5229L2.3879 17.4704L0.806152 23.2469L6.7154 21.6966C8.25365 22.5509 10.0889 23.0534 12.0419 23.0534H12.0464C18.2032 23.0511 23.1929 18.0591 23.1929 11.9024C23.1929 8.82511 21.9464 6.03961 19.9312 4.02211L19.9319 4.02136ZM12.0464 21.1701H12.0427C10.3034 21.1701 8.67515 20.6901 7.2854 19.8554L7.3274 19.8786L6.98915 19.6784L3.4829 20.5986L4.41815 17.1794L4.19765 16.8291C3.3089 15.4326 2.7809 13.7309 2.7809 11.9054C2.7809 6.78886 6.92915 2.64061 12.0457 2.64061C17.1622 2.64061 21.3104 6.78886 21.3104 11.9054C21.3104 17.0219 17.1637 21.1701 12.0464 21.1701ZM17.1284 14.2319C16.8502 14.0924 15.4807 13.4196 15.2257 13.3259C14.9699 13.2329 14.7839 13.1871 14.5979 13.4661C14.4134 13.7444 13.8794 14.3714 13.7167 14.5574C13.5547 14.7441 13.3912 14.7666 13.1129 14.6279C12.2504 14.2784 11.5094 13.8126 10.8652 13.2389L10.8727 13.2456C10.2734 12.6906 9.75965 12.0554 9.3449 11.3549L9.3239 11.3159C9.1619 11.0376 9.30665 10.8869 9.4454 10.7481C9.57065 10.6236 9.7244 10.4226 9.86315 10.2606C9.97265 10.1264 10.0664 9.97261 10.1377 9.80761L10.1422 9.79486C10.1744 9.72961 10.1932 9.65386 10.1932 9.57286C10.1932 9.47461 10.1654 9.38311 10.1174 9.30511L10.1189 9.30736C10.0484 9.16786 9.4919 7.79686 9.26015 7.23886C9.03365 6.69586 8.8034 6.77011 8.63315 6.76111C8.47115 6.75361 8.28515 6.75211 8.09915 6.75211C7.8029 6.75961 7.53965 6.89311 7.35815 7.09936L7.3574 7.10086C6.7559 7.67161 6.3824 8.47636 6.3824 9.36811C6.3824 9.38761 6.3824 9.40786 6.38315 9.42736V9.42436C6.4814 10.5246 6.8939 11.5124 7.5284 12.3171L7.5194 12.3059C8.7224 14.0901 10.3259 15.5174 12.2077 16.4789L12.2782 16.5111C12.6892 16.6971 13.2157 16.8959 13.7542 17.0661L13.8659 17.0969C14.1974 17.2019 14.5792 17.2626 14.9752 17.2626C15.2024 17.2626 15.4259 17.2424 15.6419 17.2041L15.6187 17.2071C16.4204 17.0399 17.0857 16.5561 17.4914 15.8954L17.4982 15.8826C17.6219 15.6081 17.6939 15.2879 17.6939 14.9511C17.6939 14.8124 17.6819 14.6766 17.6587 14.5446L17.6609 14.5589C17.5919 14.4426 17.4059 14.3736 17.1269 14.2334L17.1284 14.2319Z" fill="white"/>
</g>
<defs>
<clipPath id="clip0_627_9602">
<rect width="24" height="24" fill="white"/>
</clipPath>
</defs>
</svg>
