<svg width="20" height="20" viewBox="0 0 20 20" fill="none" xmlns="http://www.w3.org/2000/svg">
<path d="M20.02 9.99965C20.02 4.68652 15.8469 0.329648 10.6 0.0190234C10.4919 0.00714844 10.3837 -0.000976562 10.2731 -0.000976562C10.2406 -0.000976562 10.2081 0.00214844 10.1756 0.00339844C10.1175 0.00214844 10.0594 -0.000976562 9.99998 -0.000976562C4.47498 -0.000976562 -0.0200195 4.48527 -0.0200195 9.99965C-0.0200195 15.514 4.47498 20.0003 9.99998 20.0003C10.0587 20.0003 10.1175 19.9965 10.1756 19.9953C10.2081 19.9965 10.2406 20.0003 10.2731 20.0003C10.3831 20.0003 10.4912 19.9928 10.6 19.9803C15.8469 19.6696 20.02 15.3128 20.02 9.99965ZM18.1556 13.219C17.8112 13.119 16.9462 12.9021 15.42 12.7228C15.5462 11.8596 15.6156 10.9478 15.6156 9.99965C15.6156 9.25215 15.5725 8.5284 15.4925 7.83152C17.4262 7.60027 18.2737 7.30965 18.33 7.28965L18.0975 6.6334C18.5319 7.67027 18.7725 8.80715 18.7725 9.99965C18.7725 11.1359 18.5525 12.2215 18.1556 13.219ZM5.5756 9.99965C5.5756 9.30027 5.62185 8.61715 5.70685 7.96027C6.71998 8.03965 7.93248 8.09902 9.35623 8.11215V12.449C7.96936 12.4621 6.78498 12.5184 5.78811 12.5953C5.65061 11.7709 5.5756 10.899 5.5756 9.99965ZM10.6044 1.33215C12.1369 1.77652 13.4494 3.90402 14.0369 6.72465C13.0919 6.79965 11.9544 6.85527 10.6044 6.86777V1.33215ZM9.35686 1.34715V6.86715C8.02186 6.85402 6.87873 6.79902 5.91811 6.7259C6.51811 3.94027 7.8406 1.8284 9.35686 1.34715ZM9.35686 13.6953V18.6509C7.94248 18.2021 6.69686 16.3353 6.04873 13.8265C6.98123 13.7578 8.08248 13.7084 9.35686 13.6953ZM10.6044 18.6671V13.6953C11.8925 13.7078 12.9881 13.759 13.9094 13.8309C13.2725 16.3728 12.0344 18.2534 10.6044 18.6671ZM10.6044 12.4496V8.11277C12.0362 8.09965 13.2406 8.03902 14.2406 7.95652C14.3225 8.61465 14.3675 9.2984 14.3675 9.99902C14.3675 10.9003 14.295 11.774 14.1619 12.599C13.1775 12.519 11.9981 12.4628 10.6044 12.4496ZM17.8675 6.1309C17.6787 6.18965 16.89 6.41402 15.3087 6.60027C14.9562 4.72652 14.3187 3.12465 13.49 1.96777C15.395 2.7959 16.9494 4.2784 17.8681 6.1309H17.8675ZM7.00811 1.76902C5.98811 2.93965 5.15623 4.62402 4.70123 6.61527C3.28561 6.46215 2.43686 6.28152 2.09748 6.19965C3.08811 4.1559 4.85186 2.55215 7.00748 1.76965L7.00811 1.76902ZM1.63373 7.36652C1.87436 7.43152 2.78436 7.6584 4.47686 7.84527C4.37998 8.53715 4.32686 9.25777 4.32686 9.99965C4.32686 10.9428 4.41186 11.8496 4.56623 12.7084C3.11311 12.8653 2.21936 13.0534 1.81873 13.1496C1.43936 12.1709 1.22873 11.1096 1.22873 9.99902C1.22873 9.08215 1.37123 8.19715 1.63436 7.3659L1.63373 7.36652ZM2.36498 14.3034C2.81936 14.2071 3.63311 14.0596 4.83748 13.934C5.31186 15.6859 6.08311 17.1684 7.00811 18.2303C5.03311 17.5128 3.38936 16.1059 2.36498 14.3034ZM13.4894 18.0303C14.2362 16.9896 14.8269 15.5884 15.1944 13.9521C16.4331 14.094 17.2106 14.2609 17.6025 14.3596C16.665 15.9821 15.2225 17.2778 13.4894 18.0303Z" fill="white"/>
</svg>
